<svg width="182" height="182" viewBox="0 0 182 182" fill="none" xmlns="http://www.w3.org/2000/svg">
<path d="M3.49596 121.908C5.84223 125.972 9.34058 129.249 13.5486 131.325C17.7567 133.401 22.4854 134.182 27.1368 133.57C31.7883 132.958 36.1535 130.981 39.6806 127.887C43.2076 124.794 45.738 120.724 46.9518 116.191C48.1656 111.659 48.0082 106.868 46.4997 102.425C44.9911 97.9817 42.1991 94.0852 38.4766 91.2283C34.7542 88.3714 30.2685 86.6825 25.5869 86.3751C20.9052 86.0677 16.2379 87.1556 12.175 89.5013C6.72696 92.6468 2.75185 97.8282 1.1242 103.906C-0.50344 109.983 0.349707 116.459 3.49596 121.908ZM126.748 50.7488C124.402 46.6849 123.313 42.0168 123.619 37.3346C123.926 32.6524 125.613 28.1666 128.469 24.4443C131.325 20.722 135.22 17.9304 139.663 16.4227C144.105 14.9149 148.895 14.7586 153.427 15.9735C157.959 17.1884 162.029 19.72 165.123 23.2482C168.217 26.7764 170.195 31.1426 170.808 35.7947C171.421 40.4469 170.641 45.1761 168.566 49.3842C166.492 53.5923 163.216 57.0904 159.153 59.4361C153.705 62.5815 147.23 63.4334 141.153 61.8042C135.076 60.175 129.894 56.1982 126.748 50.7488ZM103.602 44.5436C99.5389 46.8893 94.8716 47.9772 90.1899 47.6698C85.5083 47.3624 81.0226 45.6735 77.3002 42.8166C73.5777 39.9597 70.7857 36.0632 69.2771 31.6199C67.7686 27.1765 67.6112 22.3857 68.825 17.8535C70.0388 13.3213 72.5692 9.25112 76.0962 6.1577C79.6233 3.06427 83.9885 1.08654 88.64 0.474584C93.2914 -0.137367 98.0201 0.643949 102.228 2.71974C106.436 4.79552 109.935 8.07254 112.281 12.1364C115.427 17.5859 116.28 24.0617 114.653 30.1392C113.025 36.2167 109.05 41.3981 103.602 44.5436ZM50.7794 75.0406C46.7165 77.3863 42.0492 78.4742 37.3676 78.1668C32.6859 77.8594 28.2003 76.1705 24.4778 73.3136C20.7554 70.4568 17.9633 66.5603 16.4547 62.1169C14.9462 57.6735 14.7888 52.8828 16.0026 48.3505C17.2164 43.8183 19.7468 39.7481 23.2739 36.6547C26.8009 33.5613 31.1661 31.5836 35.8176 30.9716C40.469 30.3597 45.1978 31.141 49.4058 33.2168C53.6138 35.2925 57.1122 38.5696 59.4585 42.6334C62.6047 48.0829 63.4579 54.5587 61.8302 60.6362C60.2026 66.7137 56.2275 71.8952 50.7794 75.0406ZM59.6025 129.494C61.6339 126.128 62.9816 122.394 63.5685 118.506C64.1553 114.618 63.9698 110.652 63.0225 106.836C61.0984 98.9962 61.7701 90.7446 64.9366 83.3208C68.1031 75.8969 73.5934 69.702 80.5824 65.6669C87.5714 61.6318 95.6815 59.9745 103.694 60.9442C111.706 61.9138 119.188 65.458 125.015 71.044C130.702 76.5408 138.337 79.5577 146.244 79.433C153.778 79.2257 161.167 81.5365 167.242 86C173.317 90.4636 177.731 96.8249 179.787 104.078C181.842 111.331 181.421 119.062 178.59 126.048C175.759 133.034 170.68 138.876 164.156 142.65C160.251 144.92 155.927 146.375 151.444 146.927C137.227 148.82 124.338 156.261 115.591 167.627C110.383 174.668 102.652 179.418 94.0174 180.882C85.3833 182.346 76.517 180.41 69.2774 175.48C62.0377 170.549 56.987 163.008 55.1842 154.436C53.3813 145.865 54.9662 136.929 59.6067 129.502L59.6025 129.494Z" fill="#A7C4F8" fill-opacity="0.5"/>
</svg>
