<svg width="128" height="128" viewBox="0 0 128 128" fill="none" xmlns="http://www.w3.org/2000/svg">
<g clip-path="url(#clip0_2105_10628)">
<path d="M108.974 59.0093C108.773 61.5592 107.821 63.9923 106.237 66.001C104.654 68.0096 102.51 69.5036 100.077 70.294C97.6448 71.0844 95.0325 71.1357 92.5708 70.4415C90.109 69.7472 87.9084 68.3385 86.2473 66.3936C84.5861 64.4486 83.5391 62.0548 83.2384 59.5147C82.9378 56.9747 83.3971 54.4025 84.5583 52.1235C85.7195 49.8446 87.5304 47.9611 89.7621 46.7113C91.9937 45.4615 94.5458 44.9015 97.0957 45.1022C100.515 45.3713 103.687 46.9877 105.915 49.5958C108.142 52.2039 109.243 55.59 108.974 59.0093ZM31.6188 52.9215C31.8195 50.3716 31.2595 47.8195 30.0097 45.5879C28.76 43.3562 26.8765 41.5453 24.5975 40.3841C22.3185 39.2229 19.7463 38.7636 17.2063 39.0642C14.6663 39.3648 12.2724 40.4119 10.3275 42.0731C8.38252 43.7342 6.97384 45.9348 6.27957 48.3965C5.58529 50.8583 5.63659 53.4706 6.42699 55.9032C7.21739 58.3358 8.71139 60.4794 10.7201 62.0629C12.7287 63.6464 15.1618 64.5987 17.7117 64.7993C21.131 65.0684 24.5172 63.9682 27.1252 61.7407C29.7333 59.5132 31.3497 56.3408 31.6188 52.9215ZM41.5524 44.4374C44.1023 44.638 46.6545 44.0781 48.8861 42.8283C51.1178 41.5785 52.9287 39.695 54.0899 37.416C55.2511 35.137 55.7104 32.5649 55.4098 30.0248C55.1091 27.4848 54.062 25.091 52.4009 23.146C50.7397 21.2011 48.5391 19.7924 46.0774 19.0981C43.6157 18.4038 41.0033 18.4551 38.5707 19.2455C36.1382 20.0359 33.9946 21.5299 32.4111 23.5386C30.8276 25.5473 29.8753 27.9804 29.6746 30.5303C29.4055 33.9496 30.5058 37.3357 32.7333 39.9438C34.9608 42.5519 38.1332 44.1683 41.5524 44.4374ZM74.7045 47.0464C77.2544 47.2471 79.8065 46.6871 82.0381 45.4373C84.2698 44.1876 86.0807 42.3041 87.2419 40.0251C88.4031 37.7461 88.8624 35.1739 88.5618 32.6339C88.2611 30.0939 87.214 27.7 85.5529 25.7551C83.8918 23.8101 81.6912 22.4014 79.2294 21.7072C76.7677 21.0129 74.1554 21.0642 71.7228 21.8546C69.2902 22.645 67.1466 24.139 65.5631 26.1477C63.9796 28.1563 63.0273 30.5894 62.8266 33.1393C62.5576 36.5586 63.6578 39.9448 65.8853 42.5528C68.1128 45.1609 71.2852 46.7773 74.7045 47.0464ZM83.1446 75.9069C81.3548 74.7274 79.8151 73.2066 78.6137 71.4315C77.4123 69.6563 76.5727 67.6617 76.1429 65.5618C75.2496 61.2534 72.9822 57.3514 69.6814 54.4421C66.3806 51.5327 62.2247 49.7733 57.8384 49.428C53.452 49.0828 49.072 50.1706 45.3568 52.5277C41.6415 54.8849 38.7916 58.3842 37.2353 62.4997C35.7271 66.5385 32.6785 69.8141 28.7583 71.6082C25.002 73.2741 21.9083 76.1449 19.9665 79.7664C18.0248 83.3878 17.3458 87.5533 18.0369 91.6039C18.7281 95.6546 20.75 99.3592 23.7828 102.132C26.8156 104.904 30.6862 106.587 34.7825 106.913C37.2368 107.113 39.7063 106.814 42.042 106.034C49.4821 103.629 57.5716 104.266 64.5439 107.805C68.7593 110.047 73.679 110.57 78.2714 109.264C82.8638 107.958 86.7724 104.925 89.1777 100.801C91.583 96.6765 92.2983 91.7811 91.1734 87.1411C90.0486 82.501 87.1711 78.4765 83.1442 75.9115L83.1446 75.9069Z" fill="#A7C4F8" fill-opacity="0.35"/>
</g>
<defs>
<clipPath id="clip0_2105_10628">
<rect width="118.238" height="118.238" fill="white" transform="translate(9.35938 0.03125) rotate(4.49988)"/>
</clipPath>
</defs>
</svg>
