<svg width="139" height="153" viewBox="0 0 139 153" fill="none" xmlns="http://www.w3.org/2000/svg">
<path d="M115.335 104.305C114.457 106.462 112.959 108.31 111.031 109.615C109.103 110.921 106.831 111.625 104.502 111.64C102.174 111.654 99.8932 110.977 97.9491 109.695C96.005 108.414 94.4847 106.584 93.5805 104.438C92.6762 102.292 92.4285 99.9266 92.8688 97.64C93.3091 95.3534 94.4176 93.2487 96.054 91.5921C97.6905 89.9354 99.7814 88.8013 102.062 88.333C104.343 87.8647 106.712 88.0834 108.869 88.9613C111.761 90.1386 114.067 92.4165 115.28 95.294C116.492 98.1715 116.512 101.413 115.335 104.305ZM49.9059 77.6719C50.7838 75.5151 51.0025 73.1464 50.5342 70.8654C50.0659 68.5843 48.9318 66.4934 47.2751 64.8569C45.6185 63.2205 43.5138 62.112 41.2272 61.6717C38.9406 61.2314 36.5748 61.4791 34.4289 62.3834C32.2831 63.2877 30.4536 64.808 29.1717 66.752C27.8899 68.6961 27.2134 70.9766 27.2276 73.3052C27.2419 75.6337 27.9463 77.9058 29.2519 79.834C30.5574 81.7622 32.4054 83.2599 34.5622 84.1379C37.4543 85.3151 40.6957 85.2953 43.5732 84.0826C46.4507 82.87 48.7286 80.564 49.9059 77.6719ZM60.8657 73.0533C63.0225 73.9312 65.3911 74.1499 67.6722 73.6816C69.9532 73.2133 72.0442 72.0792 73.6806 70.4225C75.3171 68.7659 76.4255 66.6612 76.8658 64.3746C77.3061 62.088 77.0584 59.7222 76.1542 57.5763C75.2499 55.4305 73.7296 53.601 71.7855 52.3191C69.8415 51.0373 67.561 50.3608 65.2324 50.375C62.9038 50.3893 60.6318 51.0938 58.7036 52.3993C56.7754 53.7048 55.2776 55.5528 54.3997 57.7096C53.2224 60.6018 53.2423 63.8431 54.4549 66.7206C55.6675 69.5981 57.9735 71.8761 60.8657 73.0533ZM88.9067 84.4675C91.0635 85.3454 93.4321 85.5641 95.7132 85.0958C97.9942 84.6275 100.085 83.4934 101.722 81.8367C103.358 80.1801 104.467 78.0754 104.907 75.7888C105.347 73.5022 105.099 71.1364 104.195 68.9905C103.291 66.8447 101.771 65.0152 99.8265 63.7333C97.8825 62.4515 95.602 61.775 93.2734 61.7892C90.9448 61.8035 88.6728 62.5079 86.7446 63.8135C84.8164 65.119 83.3186 66.967 82.4407 69.1238C81.2634 72.016 81.2833 75.2573 82.4959 78.1348C83.7085 81.0123 86.0145 83.2902 88.9067 84.4675ZM88.2628 111.835C87.0356 110.318 86.1196 108.574 85.5673 106.702C85.015 104.83 84.8372 102.868 85.044 100.928C85.4582 96.9433 84.5681 92.9323 82.5076 89.4972C80.447 86.0621 77.3272 83.3885 73.617 81.8783C69.9069 80.3681 65.8068 80.1027 61.933 81.1222C58.0592 82.1417 54.6208 84.3909 52.1347 87.5318C49.7114 90.6193 46.1625 92.6196 42.2663 93.094C38.5477 93.5025 35.0713 95.1391 32.3871 97.7449C29.7029 100.351 27.9641 103.777 27.4457 107.482C26.9273 111.187 27.6588 114.959 29.5246 118.202C31.3904 121.444 34.284 123.972 37.7477 125.386C39.8217 126.237 42.0466 126.659 44.2883 126.627C51.4068 126.594 58.2491 129.379 63.3211 134.374C66.3594 137.483 70.4832 139.294 74.8278 139.429C79.1724 139.564 83.4005 138.011 86.6256 135.097C89.8507 132.183 91.8225 128.134 92.1274 123.798C92.4323 119.462 91.0468 115.176 88.2612 111.839L88.2628 111.835Z" fill="#A7C4F8" fill-opacity="0.35"/>
</svg>
