<svg width="108" height="104" viewBox="0 0 108 104" fill="none" xmlns="http://www.w3.org/2000/svg">
<path d="M107.257 26.9141C108.015 29.5311 107.98 32.3141 107.156 34.9112C106.332 37.5082 104.757 39.8027 102.629 41.5044C100.501 43.2061 97.9166 44.2387 95.202 44.4715C92.4874 44.7043 89.7647 44.1269 87.3783 42.8123C84.9918 41.4978 83.0488 39.5051 81.7948 37.0862C80.5409 34.6673 80.0324 31.9309 80.3337 29.2231C80.635 26.5152 81.7324 23.9575 83.4873 21.8734C85.2422 19.7892 87.5757 18.2723 90.1927 17.5143C93.702 16.498 97.4714 16.9173 100.671 18.6801C103.872 20.4429 106.24 23.4047 107.257 26.9141ZM27.8654 49.9071C27.1075 47.29 25.5905 44.9565 23.5064 43.2017C21.4222 41.4468 18.8645 40.3493 16.1567 40.048C13.4488 39.7468 10.7124 40.2553 8.29355 41.5092C5.87468 42.7631 3.88196 44.7062 2.56738 47.0926C1.25281 49.4791 0.675418 52.2017 0.90823 54.9163C1.14104 57.6309 2.1736 60.2156 3.87533 62.3433C5.57705 64.4711 7.87152 66.0464 10.4686 66.8702C13.0656 67.6939 15.8486 67.7291 18.4657 66.9711C21.975 65.9548 24.9368 63.586 26.6996 60.3858C28.4624 57.1857 28.8817 53.4164 27.8654 49.9071ZM34.5795 37.7185C37.1965 36.9605 39.53 35.4436 41.2849 33.3594C43.0398 31.2753 44.1373 28.7176 44.4385 26.0097C44.7398 23.3019 44.2313 20.5655 42.9774 18.1466C41.7234 15.7277 39.7804 13.735 37.3939 12.4204C35.0075 11.1059 32.2848 10.5285 29.5702 10.7613C26.8556 10.9941 24.271 12.0267 22.1432 13.7284C20.0155 15.4301 18.4401 17.7246 17.6164 20.3216C16.7926 22.9187 16.7575 25.7017 17.5154 28.3187C18.5318 31.828 20.9006 34.7899 24.1007 36.5527C27.3008 38.3155 31.0702 38.7348 34.5795 37.7185ZM68.6044 27.8643C71.2214 27.1064 73.5549 25.5894 75.3098 23.5053C77.0647 21.4212 78.1621 18.8634 78.4634 16.1556C78.7646 13.4477 78.2562 10.7113 77.0022 8.29246C75.7483 5.87359 73.8053 3.88087 71.4188 2.5663C69.0324 1.25172 66.3097 0.674333 63.5951 0.907144C60.8805 1.13996 58.2959 2.17251 56.1681 3.87424C54.0403 5.57597 52.465 7.87044 51.6412 10.4675C50.8175 13.0646 50.7824 15.8476 51.5403 18.4646C52.5567 21.9739 54.9255 24.9357 58.1256 26.6985C61.3257 28.4613 65.095 28.8807 68.6044 27.8643ZM87.8596 53.4605C85.6325 52.9573 83.5265 52.0198 81.662 50.7018C79.7976 49.3838 78.2114 47.711 76.9941 45.7793C74.4851 41.8205 70.7591 38.783 66.376 37.1231C61.9929 35.4633 57.1895 35.2708 52.6876 36.5746C48.1857 37.8784 44.2286 40.6081 41.4109 44.3534C38.5932 48.0987 37.0672 52.6574 37.0621 57.3442C37.0761 61.9365 35.268 66.3469 32.0344 69.6079C28.9162 72.6797 26.911 76.7034 26.3361 81.0426C25.7611 85.3818 26.6492 89.7889 28.8599 93.5667C31.0706 97.3446 34.4777 100.278 38.5424 101.902C42.607 103.526 47.0971 103.749 51.3026 102.535C53.8242 101.813 56.1734 100.587 58.2085 98.9319C64.7211 93.7397 73.0235 91.3352 81.3028 92.2434C86.3468 92.8943 91.447 91.5672 95.534 88.5403C99.621 85.5135 102.377 81.0219 103.226 76.0073C104.074 70.9927 102.947 65.8445 100.083 61.642C97.2186 57.4395 92.8385 54.5091 87.861 53.4652L87.8596 53.4605Z" fill="#4E76BB" fill-opacity="0.15"/>
</svg>
