<svg width="109" height="102" viewBox="0 0 109 102" fill="none" xmlns="http://www.w3.org/2000/svg">
<path d="M108.498 51.935C107.946 54.6031 106.615 57.0477 104.674 58.9596C102.733 60.8715 100.269 62.1648 97.5924 62.6761C94.9162 63.1873 92.1485 62.8936 89.6393 61.8319C87.1301 60.7702 84.9921 58.9882 83.4956 56.7114C81.9992 54.4346 81.2115 51.7652 81.2321 49.0407C81.2528 46.3162 82.0809 43.659 83.6117 41.4052C85.1425 39.1513 87.3073 37.402 89.8323 36.3785C92.3573 35.355 95.1291 35.1032 97.7972 35.655C101.375 36.3949 104.512 38.5258 106.519 41.5789C108.526 44.632 109.237 48.3572 108.498 51.935ZM27.5564 35.1959C28.1082 32.5278 27.8564 29.756 26.8328 27.231C25.8093 24.706 24.06 22.5412 21.8062 21.0104C19.5523 19.4796 16.8951 18.6515 14.1706 18.6308C11.4462 18.6102 8.77672 19.3979 6.49992 20.8944C4.22311 22.3908 2.44119 24.5289 1.37949 27.038C0.317796 29.5472 0.0240025 32.3149 0.535267 34.9911C1.04653 37.6673 2.33989 40.1317 4.25179 42.0728C6.16369 44.0139 8.60826 45.3445 11.2764 45.8963C14.8542 46.6362 18.5794 45.9245 21.6325 43.9178C24.6856 41.9111 26.8165 38.7738 27.5564 35.1959ZM39.185 27.5528C41.8531 28.1046 44.6249 27.8528 47.1499 26.8293C49.6749 25.8057 51.8397 24.0564 53.3705 21.8026C54.9014 19.5487 55.7294 16.8916 55.7501 14.1671C55.7708 11.4426 54.983 8.77314 53.4866 6.49634C51.9901 4.21954 49.8521 2.43762 47.3429 1.37592C44.8337 0.314221 42.066 0.0204274 39.3899 0.531691C36.7137 1.04296 34.2492 2.33631 32.3081 4.24821C30.367 6.16011 29.0364 8.60468 28.4846 11.2728C27.7447 14.8506 28.4564 18.5758 30.4631 21.6289C32.4698 24.682 35.6072 26.8129 39.185 27.5528ZM73.8741 34.7267C76.5422 35.2785 79.314 35.0267 81.839 34.0032C84.364 32.9796 86.5288 31.2303 88.0596 28.9765C89.5904 26.7226 90.4185 24.0654 90.4392 21.3409C90.4598 18.6165 89.6721 15.947 88.1756 13.6702C86.6792 11.3934 84.5411 9.6115 82.032 8.5498C79.5228 7.4881 76.7551 7.19431 74.0789 7.70557C71.4028 8.21684 68.9383 9.51019 66.9972 11.4221C65.0561 13.334 63.7255 15.7786 63.1737 18.4467C62.4338 22.0245 63.1455 25.7497 65.1522 28.8028C67.1589 31.8559 70.2963 33.9868 73.8741 34.7267ZM78.9492 66.3522C77.2148 64.8673 75.7902 63.0549 74.7569 61.0188C73.7237 58.9827 73.1021 56.7628 72.9277 54.4862C72.5576 49.814 70.6811 45.3881 67.5802 41.8736C64.4794 38.3592 60.3216 35.946 55.7319 34.9968C51.1421 34.0476 46.3683 34.6137 42.1278 36.6099C37.8873 38.6062 34.4092 41.9247 32.2162 46.0669C30.0842 50.1343 26.4259 53.19 22.0438 54.5638C17.852 55.8241 14.2 58.4459 11.6654 62.0145C9.13084 65.5832 7.85833 69.895 8.04917 74.268C8.24001 78.641 9.88331 82.8255 12.7192 86.1598C15.555 89.4941 19.4215 91.7878 23.7072 92.6781C26.2744 93.2167 28.9241 93.2297 31.4965 92.7164C39.6799 91.1661 48.1444 92.9166 55.0417 97.5857C59.198 100.517 64.3277 101.725 69.3551 100.956C74.3826 100.188 78.9175 97.5034 82.0089 93.4651C85.1004 89.4267 86.5085 84.3484 85.9379 79.2947C85.3672 74.241 82.8623 69.6044 78.9482 66.357L78.9492 66.3522Z" fill="#4E76BB" fill-opacity="0.15"/>
</svg>
