<svg width="24" height="25" viewBox="0 0 24 25" fill="none" xmlns="http://www.w3.org/2000/svg">
<path d="M23.8125 12.2498C23.8125 11.8477 23.7333 11.4494 23.5794 11.0779C23.4255 10.7063 23.1999 10.3687 22.9155 10.0843C22.6311 9.79995 22.2935 9.57437 21.922 9.42046C21.5504 9.26656 21.1522 9.18735 20.75 9.18735H13.3125V8.96203C14.0795 8.68966 14.7436 8.18669 15.2135 7.5221C15.6835 6.8575 15.9364 6.06381 15.9375 5.24985C15.9375 1.85266 12.7241 0.206565 12.5873 0.138752C12.405 0.0475066 12.2039 0 12 0C11.7961 0 11.595 0.0475066 11.4127 0.138752C11.2759 0.206565 8.0625 1.85266 8.0625 5.24985C8.06364 6.06381 8.31653 6.8575 8.78648 7.5221C9.25644 8.18669 9.92046 8.68966 10.6875 8.96203V9.18735H3.25C2.43777 9.18735 1.65882 9.51 1.08449 10.0843C0.510155 10.6587 0.1875 11.4376 0.1875 12.2498V14.8016C0.188139 15.7984 0.493445 16.7711 1.0625 17.5895V21.8748C1.0625 22.6871 1.38516 23.466 1.95949 24.0404C2.53382 24.6147 3.31277 24.9373 4.125 24.9373H19.875C20.6872 24.9373 21.4662 24.6147 22.0405 24.0404C22.6148 23.466 22.9375 22.6871 22.9375 21.8748V17.5895C23.5066 16.7711 23.8119 15.7984 23.8125 14.8016V12.2498ZM11.5625 3.27344C11.7 3.1342 11.8461 3.00379 12 2.88297C12.1541 3.0035 12.3003 3.13394 12.4375 3.27344C13.0205 3.87719 13.3125 4.54219 13.3125 5.24985C13.3125 5.59794 13.1742 5.93178 12.9281 6.17792C12.6819 6.42407 12.3481 6.56235 12 6.56235C11.6519 6.56235 11.3181 6.42407 11.0719 6.17792C10.8258 5.93178 10.6875 5.59794 10.6875 5.24985C10.6875 4.54219 10.9839 3.87719 11.5625 3.27344ZM2.8125 12.2498C2.8125 12.1338 2.85859 12.0225 2.94064 11.9405C3.02269 11.8584 3.13397 11.8123 3.25 11.8123H20.75C20.866 11.8123 20.9773 11.8584 21.0594 11.9405C21.1414 12.0225 21.1875 12.1338 21.1875 12.2498V14.8016C21.1875 16.0156 20.2338 17.0295 19.0623 17.0613C18.77 17.0696 18.4789 17.0192 18.2063 16.9131C17.9338 16.807 17.6852 16.6472 17.4755 16.4434C17.2657 16.2395 17.099 15.9957 16.9851 15.7263C16.8712 15.4569 16.8125 15.1673 16.8125 14.8748C16.8125 14.5267 16.6742 14.1929 16.4281 13.9468C16.1819 13.7006 15.8481 13.5623 15.5 13.5623C15.1519 13.5623 14.8181 13.7006 14.5719 13.9468C14.3258 14.1929 14.1875 14.5267 14.1875 14.8748C14.1875 15.455 13.957 16.0114 13.5468 16.4216C13.1366 16.8319 12.5802 17.0623 12 17.0623C11.4198 17.0623 10.8634 16.8319 10.4532 16.4216C10.043 16.0114 9.8125 15.455 9.8125 14.8748C9.8125 14.5267 9.67422 14.1929 9.42808 13.9468C9.18194 13.7006 8.8481 13.5623 8.5 13.5623C8.1519 13.5623 7.81806 13.7006 7.57192 13.9468C7.32578 14.1929 7.1875 14.5267 7.1875 14.8748C7.18762 15.1674 7.12904 15.4571 7.01523 15.7266C6.90142 15.9962 6.73469 16.2401 6.52491 16.4441C6.31514 16.6481 6.06657 16.8079 5.79393 16.9141C5.5213 17.0203 5.23013 17.0707 4.93766 17.0623C3.76625 17.0295 2.8125 16.0156 2.8125 14.8016V12.2498ZM19.875 22.3123H4.125C4.00897 22.3123 3.89769 22.2663 3.81564 22.1842C3.73359 22.1022 3.6875 21.9909 3.6875 21.8748V19.5003C4.07054 19.6128 4.46643 19.6757 4.86547 19.6873C5.50888 19.7074 6.14971 19.5972 6.74946 19.3634C7.34922 19.1296 7.89555 18.7769 8.35563 18.3267C8.40594 18.2786 8.45406 18.2283 8.50109 18.1791C8.95095 18.6557 9.49344 19.0355 10.0953 19.2951C10.6971 19.5546 11.3457 19.6885 12.0011 19.6885C12.6565 19.6885 13.3051 19.5546 13.9069 19.2951C14.5088 19.0355 15.0512 18.6557 15.5011 18.1791C15.5481 18.2283 15.5962 18.2786 15.6466 18.3267C16.5426 19.2027 17.747 19.6913 19 19.6873H19.1367C19.535 19.6755 19.9302 19.6126 20.3125 19.5003V21.8748C20.3125 21.9909 20.2664 22.1022 20.1844 22.1842C20.1023 22.2663 19.991 22.3123 19.875 22.3123Z" fill="#133591"/>
</svg>
