<svg width="54" height="54" viewBox="0 0 54 54" fill="none" xmlns="http://www.w3.org/2000/svg">
<path d="M51.2979 11.2674C49.898 9.58167 47.8944 8.51008 45.7151 8.28149C45.5767 7.02245 45.1567 5.81071 44.4861 4.73616C43.8156 3.66161 42.9117 2.75182 41.8415 2.07428C40.7713 1.39673 39.5623 0.968819 38.3042 0.822282C37.0461 0.675745 35.7711 0.814343 34.5739 1.22779C33.3767 1.64125 32.2879 2.31894 31.3883 3.21061C30.4887 4.10228 29.8014 5.18505 29.3774 6.37859C28.9534 7.57213 28.8035 8.84582 28.9389 10.1052C29.0743 11.3645 29.4916 12.5773 30.1596 13.6534C30.1606 13.6596 30.1606 13.6659 30.1596 13.6721L13.6807 30.1627C13.6807 30.1627 13.6807 30.1627 13.6573 30.1627C12.5812 29.4947 11.3684 29.0775 10.1091 28.9421C8.84972 28.8066 7.57603 28.9565 6.38249 29.3805C5.18895 29.8045 4.10619 30.4918 3.21452 31.3914C2.32285 32.291 1.64515 33.3798 1.2317 34.577C0.818249 35.7743 0.679651 37.0492 0.826188 38.3073C0.972725 39.5655 1.40064 40.7744 2.07818 41.8446C2.75573 42.9148 3.66552 43.8187 4.74007 44.4892C5.81462 45.1598 7.02636 45.5799 8.2854 45.7182C8.42375 46.9773 8.84379 48.189 9.51437 49.2635C10.1849 50.3381 11.0888 51.2479 12.159 51.9254C13.2292 52.603 14.4382 53.0309 15.6963 53.1774C16.9544 53.324 18.2293 53.1854 19.4266 52.7719C20.6238 52.3585 21.7126 51.6808 22.6122 50.7891C23.5118 49.8974 24.1991 48.8147 24.6231 47.6211C25.0471 46.4276 25.197 45.1539 25.0616 43.8945C24.9261 42.6352 24.5089 41.4225 23.8409 40.3463C23.8404 40.3401 23.8404 40.3338 23.8409 40.3276L40.3292 23.837C40.3292 23.837 40.3292 23.837 40.3526 23.837C42.0553 24.9094 44.0853 25.338 46.0763 25.0454C48.0672 24.7528 49.888 23.7583 51.2102 22.2412C52.5323 20.7242 53.2687 18.7845 53.2865 16.7723C53.3043 14.76 52.6024 12.8076 51.3073 11.2674H51.2979ZM48.3518 19.7682C47.6186 20.6077 46.6103 21.1585 45.5077 21.3217C44.4051 21.4849 43.2804 21.2499 42.3354 20.6588C41.616 20.2023 40.7625 20.0044 39.9156 20.0977C39.0687 20.191 38.2788 20.57 37.676 21.1721L21.176 37.6721C20.5753 38.2761 20.1982 39.0665 20.1066 39.9134C20.015 40.7603 20.2144 41.6131 20.6721 42.3315C21.0712 42.9734 21.3091 43.7024 21.3656 44.4561C21.422 45.2099 21.2954 45.9661 20.9964 46.6603C20.6975 47.3546 20.235 47.9662 19.6486 48.4431C19.0622 48.92 18.3691 49.248 17.6285 49.3992C16.8879 49.5503 16.1217 49.5201 15.3953 49.3111C14.6689 49.1022 14.0038 48.7206 13.4567 48.1991C12.9096 47.6775 12.4968 47.0314 12.2534 46.3158C12.01 45.6001 11.9432 44.8363 12.0588 44.0893C12.1008 43.8216 12.0843 43.5481 12.0104 43.2874C11.9366 43.0267 11.8071 42.7852 11.6309 42.5793C11.4547 42.3735 11.236 42.2083 10.9898 42.0951C10.7436 41.9819 10.4759 41.9235 10.2049 41.9237C10.1084 41.9245 10.012 41.9323 9.91665 41.9471C9.17044 42.0619 8.40756 41.9947 7.6929 41.7512C6.97824 41.5078 6.33295 41.0954 5.81193 40.549C5.2909 40.0026 4.90956 39.3385 4.70034 38.6131C4.49112 37.8877 4.46021 37.1225 4.61025 36.3825C4.76028 35.6426 5.08682 34.9499 5.56209 34.3633C6.03735 33.7766 6.64727 33.3135 7.33997 33.0132C8.03267 32.713 8.78765 32.5845 9.54068 32.6387C10.2937 32.6928 11.0225 32.9281 11.6651 33.3245C12.3845 33.781 13.2379 33.9789 14.0849 33.8856C14.9318 33.7923 15.7217 33.4133 16.3245 32.8112L32.8245 16.3112C33.4229 15.7079 33.7987 14.9192 33.8902 14.0744C33.9818 13.2295 33.7837 12.3787 33.3284 11.6612C32.9293 11.0192 32.6914 10.2903 32.6349 9.53656C32.5784 8.7828 32.7051 8.02657 33.0041 7.33233C33.303 6.6381 33.7654 6.02646 34.3519 5.54957C34.9383 5.07267 35.6314 4.74467 36.372 4.59353C37.1126 4.44238 37.8788 4.47258 38.6052 4.68154C39.3316 4.89051 39.9967 5.27204 40.5438 5.79361C41.0909 6.31518 41.5037 6.96131 41.7471 7.67692C41.9905 8.39253 42.0573 9.15639 41.9417 9.90337C41.896 10.1951 41.92 10.4935 42.0115 10.7742C42.103 11.055 42.2595 11.3101 42.4683 11.5189C42.6771 11.7277 42.9323 11.8842 43.213 11.9757C43.4937 12.0673 43.7921 12.0912 44.0838 12.0456C45.0383 11.8911 46.0172 12.0356 46.8864 12.4592C47.7556 12.8829 48.4725 13.565 48.9388 14.412C49.4052 15.259 49.5982 16.2295 49.4915 17.1905C49.3847 18.1515 48.9833 19.0559 48.3424 19.7799L48.3518 19.7682Z" fill="#1E2D67"/>
</svg>
