<svg width="54" height="46" viewBox="0 0 54 46" fill="none" xmlns="http://www.w3.org/2000/svg">
<path d="M25 22.875C25 23.3723 24.8025 23.8492 24.4508 24.2008C24.0992 24.5525 23.6223 24.75 23.125 24.75H11.875C11.3777 24.75 10.9008 24.5525 10.5492 24.2008C10.1975 23.8492 10 23.3723 10 22.875C10 22.3777 10.1975 21.9008 10.5492 21.5492C10.9008 21.1975 11.3777 21 11.875 21H23.125C23.6223 21 24.0992 21.1975 24.4508 21.5492C24.8025 21.9008 25 22.3777 25 22.875ZM23.125 13.5H11.875C11.3777 13.5 10.9008 13.6975 10.5492 14.0492C10.1975 14.4008 10 14.8777 10 15.375C10 15.8723 10.1975 16.3492 10.5492 16.7008C10.9008 17.0525 11.3777 17.25 11.875 17.25H23.125C23.6223 17.25 24.0992 17.0525 24.4508 16.7008C24.8025 16.3492 25 15.8723 25 15.375C25 14.8777 24.8025 14.4008 24.4508 14.0492C24.0992 13.6975 23.6223 13.5 23.125 13.5ZM49.375 28.8445V43.5C49.378 43.8306 49.2935 44.156 49.1302 44.4434C48.9668 44.7308 48.7304 44.9699 48.4448 45.1365C48.1593 45.303 47.8348 45.3911 47.5042 45.3919C47.1737 45.3926 46.8488 45.3059 46.5625 45.1406L40.9375 41.9203L35.3125 45.1406C35.0262 45.3059 34.7013 45.3926 34.3708 45.3919C34.0402 45.3911 33.7157 45.303 33.4302 45.1365C33.1446 44.9699 32.9082 44.7308 32.7448 44.4434C32.5815 44.156 32.497 43.8306 32.5 43.5V37.875H4.375C3.38044 37.875 2.42661 37.4799 1.72335 36.7766C1.02009 36.0734 0.625 35.1196 0.625 34.125V4.125C0.625 3.13044 1.02009 2.17661 1.72335 1.47335C2.42661 0.770088 3.38044 0.375 4.375 0.375H45.625C46.6196 0.375 47.5734 0.770088 48.2766 1.47335C48.9799 2.17661 49.375 3.13044 49.375 4.125V11.2805C50.5603 12.4155 51.5035 13.7787 52.1479 15.288C52.7923 16.7973 53.1245 18.4214 53.1245 20.0625C53.1245 21.7036 52.7923 23.3277 52.1479 24.837C51.5035 26.3463 50.5603 27.7095 49.375 28.8445ZM32.5 34.125V28.8445C30.4567 26.874 29.1654 24.252 28.8489 21.431C28.5323 18.6101 29.2104 15.7671 30.7661 13.3927C32.3218 11.0183 34.6576 9.26146 37.3703 8.42527C40.083 7.58908 43.0025 7.72604 45.625 8.8125V4.125H4.375V34.125H32.5ZM45.625 31.3125C44.1401 31.9329 42.5468 32.2523 40.9375 32.2523C39.3282 32.2523 37.7349 31.9329 36.25 31.3125V40.2703L40 38.1234C40.2834 37.9615 40.6041 37.8763 40.9305 37.8763C41.2569 37.8763 41.5776 37.9615 41.8609 38.1234L45.6109 40.2703L45.625 31.3125ZM49.375 20.0625C49.375 18.3937 48.8801 16.7624 47.953 15.3749C47.0259 13.9873 45.7081 12.9059 44.1664 12.2673C42.6246 11.6287 40.9281 11.4616 39.2914 11.7871C37.6547 12.1127 36.1513 12.9163 34.9713 14.0963C33.7913 15.2763 32.9877 16.7797 32.6621 18.4164C32.3366 20.0531 32.5037 21.7496 33.1423 23.2914C33.7809 24.8331 34.8623 26.1509 36.2499 27.078C37.6374 28.0051 39.2687 28.5 40.9375 28.5C42.0455 28.5 43.1427 28.2818 44.1664 27.8577C45.1901 27.4337 46.1202 26.8122 46.9037 26.0287C47.6872 25.2452 48.3087 24.3151 48.7327 23.2914C49.1568 22.2677 49.375 21.1705 49.375 20.0625Z" fill="#1E2D67"/>
</svg>
