<svg width="78" height="79" viewBox="0 0 78 79" fill="none" xmlns="http://www.w3.org/2000/svg">
<path d="M39 7.8125C32.7328 7.8125 26.6064 9.67094 21.3954 13.1528C16.1844 16.6347 12.1229 21.5836 9.72458 27.3737C7.32623 33.1639 6.69871 39.5352 7.92138 45.6819C9.14405 51.8287 12.162 57.4749 16.5936 61.9064C21.0251 66.338 26.6713 69.356 32.8181 70.5786C38.9649 71.8013 45.3362 71.1738 51.1263 68.7754C56.9164 66.3771 61.8653 62.3156 65.3472 57.1046C68.8291 51.8936 70.6875 45.7672 70.6875 39.5C70.6786 31.0987 67.3373 23.044 61.3967 17.1034C55.456 11.1627 47.4013 7.82137 39 7.8125ZM52.912 33.912L35.8495 50.9745C35.6232 51.2012 35.3543 51.381 35.0584 51.5036C34.7625 51.6263 34.4453 51.6894 34.125 51.6894C33.8047 51.6894 33.4875 51.6263 33.1916 51.5036C32.8957 51.381 32.6269 51.2012 32.4005 50.9745L25.088 43.662C24.6306 43.2047 24.3737 42.5843 24.3737 41.9375C24.3737 41.2907 24.6306 40.6703 25.088 40.213C25.5454 39.7556 26.1657 39.4986 26.8125 39.4986C27.4593 39.4986 28.0797 39.7556 28.537 40.213L34.125 45.804L49.463 30.463C49.6894 30.2365 49.9583 30.0569 50.2542 29.9343C50.5501 29.8117 50.8672 29.7486 51.1875 29.7486C51.5078 29.7486 51.8249 29.8117 52.1208 29.9343C52.4167 30.0569 52.6856 30.2365 52.912 30.463C53.1385 30.6894 53.3182 30.9583 53.4407 31.2542C53.5633 31.5501 53.6264 31.8672 53.6264 32.1875C53.6264 32.5078 53.5633 32.8249 53.4407 33.1208C53.3182 33.4167 53.1385 33.6856 52.912 33.912Z" fill="#1E2D67"/>
</svg>
