<svg width="54" height="48" viewBox="0 0 54 48" fill="none" xmlns="http://www.w3.org/2000/svg">
<path d="M53.182 24.2949L49.3335 3.66991C49.2395 3.16716 49.0436 2.68897 48.7579 2.26473C48.4722 1.8405 48.1028 1.47919 47.6723 1.20302C47.2418 0.926856 46.7594 0.741672 46.2546 0.658858C45.7499 0.576044 45.2336 0.597351 44.7374 0.721469L44.6648 0.742563L32.3554 4.37303H21.6445L9.3351 0.754281L9.26244 0.733187C8.76627 0.60907 8.24995 0.587763 7.74523 0.670577C7.24052 0.75339 6.75808 0.938575 6.32759 1.21474C5.89709 1.49091 5.52764 1.85222 5.24196 2.27645C4.95627 2.70069 4.76038 3.17888 4.66635 3.68162L0.81791 24.2949C0.653339 25.1204 0.775498 25.9774 1.16418 26.7241C1.55286 27.4708 2.18478 28.0624 2.95541 28.4012C3.44893 28.6275 3.98512 28.7458 4.52807 28.748C5.17792 28.7477 5.81576 28.5729 6.37494 28.2418V38.123C6.37494 40.6094 7.36266 42.994 9.12081 44.7522C10.879 46.5103 13.2635 47.498 15.7499 47.498H38.2499C40.7363 47.498 43.1209 46.5103 44.8791 44.7522C46.6372 42.994 47.6249 40.6094 47.6249 38.123V28.2441C48.1835 28.5746 48.8204 28.7494 49.4695 28.7504C50.013 28.7488 50.5499 28.6314 51.0445 28.4058C51.816 28.0669 52.4486 27.4746 52.8374 26.7269C53.2261 25.9792 53.3477 25.1211 53.182 24.2949ZM4.49994 24.998L8.35072 4.37303L18.2109 7.27225L4.49994 24.998ZM38.2499 43.748H28.8749V40.7738L32.0765 37.5746C32.4283 37.2228 32.626 36.7456 32.626 36.248C32.626 35.7505 32.4283 35.2733 32.0765 34.9215C31.7247 34.5696 31.2475 34.372 30.7499 34.372C30.2524 34.372 29.7752 34.5696 29.4234 34.9215L26.9999 37.3473L24.5765 34.9215C24.2247 34.5696 23.7475 34.372 23.2499 34.372C22.7524 34.372 22.2752 34.5696 21.9234 34.9215C21.5715 35.2733 21.3739 35.7505 21.3739 36.248C21.3739 36.7456 21.5715 37.2228 21.9234 37.5746L25.1249 40.7738V43.748H15.7499C14.2581 43.748 12.8274 43.1554 11.7725 42.1005C10.7176 41.0456 10.1249 39.6149 10.1249 38.123V23.8519L22.2937 8.12303H31.7038L43.8749 23.8519V38.123C43.8749 39.6149 43.2823 41.0456 42.2274 42.1005C41.1725 43.1554 39.7418 43.748 38.2499 43.748ZM49.4999 24.998L35.789 7.27225L45.6492 4.37303L49.4999 24.998ZM21.3749 27.8105C21.3749 28.3668 21.21 28.9106 20.9009 29.3731C20.5919 29.8356 20.1527 30.1961 19.6387 30.4089C19.1248 30.6218 18.5593 30.6775 18.0137 30.569C17.4682 30.4605 16.967 30.1926 16.5737 29.7993C16.1804 29.4059 15.9125 28.9048 15.804 28.3592C15.6955 27.8137 15.7512 27.2482 15.964 26.7342C16.1769 26.2203 16.5374 25.7811 16.9999 25.472C17.4624 25.163 18.0062 24.998 18.5624 24.998C19.3084 24.998 20.0237 25.2943 20.5512 25.8218C21.0786 26.3492 21.3749 27.0646 21.3749 27.8105ZM38.2499 27.8105C38.2499 28.3668 38.085 28.9106 37.7759 29.3731C37.4669 29.8356 37.0276 30.1961 36.5137 30.4089C35.9998 30.6218 35.4343 30.6775 34.8887 30.569C34.3432 30.4605 33.842 30.1926 33.4487 29.7993C33.0554 29.4059 32.7875 28.9048 32.679 28.3592C32.5705 27.8137 32.6262 27.2482 32.839 26.7342C33.0519 26.2203 33.4124 25.7811 33.8749 25.472C34.3374 25.163 34.8812 24.998 35.4374 24.998C36.1834 24.998 36.8987 25.2943 37.4262 25.8218C37.9536 26.3492 38.2499 27.0646 38.2499 27.8105Z" fill="#1E2D67"/>
</svg>
