<svg width="19" height="21" viewBox="0 0 23 24" fill="none" xmlns="http://www.w3.org/2000/svg">
<path d="M19.9375 4.96875H3.0625C2.87602 4.96875 2.69718 5.04283 2.56532 5.17469C2.43345 5.30655 2.35938 
5.48539 2.35938 5.67188V17.625C2.35938 17.998 2.50753 18.3556 2.77126 18.6194C3.03498 18.8831 3.39266 19.0312 
3.76562 19.0312H19.2344C19.6073 19.0312 19.965 18.8831 20.2287 18.6194C20.4925 18.3556 20.6406 17.998 20.6406 
17.625V5.67188C20.6406 5.48539 20.5665 5.30655 20.4347 5.17469C20.3028 5.04283 20.124 4.96875 19.9375
 4.96875ZM18.1296 6.375L11.5 12.4526L4.87041 6.375H18.1296ZM19.2344 17.625H3.76562V7.27061L11.0245 
 13.9248C11.1542 14.0439 11.3239 14.11 11.5 14.11C11.6761 14.11 11.8458 14.0439 11.9755 13.9248L19.2344 
 7.27061V17.625Z" fill="#133591"/>
</svg>
