<svg width="50" height="50" viewBox="0 0 50 50" fill="none" xmlns="http://www.w3.org/2000/svg">
<path d="M33.5524 33.3227C33.9447 33.7164 34.2116 34.2175 34.3193 34.7628C34.4271 35.3081 34.3708 35.8731 34.1576 36.3865C33.9445 36.8998 33.584 37.3385 33.1217 37.6471C32.6594 37.9557 32.116 38.1204 31.5602 38.1204C31.0043 38.1204 30.4609 37.9557 29.9986 37.6471C29.5363 37.3385 29.1758 36.8998 28.9627 36.3865C28.7495 35.8731 28.6933 35.3081 28.801 34.7628C28.9087 34.2175 29.1756 33.7164 29.568 33.3227C29.8293 33.0605 30.1398 32.8524 30.4816 32.7105C30.8235 32.5685 31.19 32.4954 31.5602 32.4954C31.9303 32.4954 32.2969 32.5685 32.6387 32.7105C32.9806 32.8524 33.2911 33.0605 33.5524 33.3227ZM14.568 31.4477C14.1756 31.8414 13.9087 32.3425 13.801 32.8878C13.6933 33.4331 13.7495 33.9981 13.9627 34.5115C14.1758 35.0248 14.5363 35.4635 14.9986 35.7721C15.4609 36.0807 16.0043 36.2454 16.5602 36.2454C17.116 36.2454 17.6594 36.0807 18.1217 35.7721C18.584 35.4635 18.9445 35.0248 19.1576 34.5115C19.3708 33.9981 19.4271 33.4331 19.3193 32.8878C19.2116 32.3425 18.9447 31.8414 18.5524 31.4477C18.2911 31.1862 17.981 30.9787 17.6395 30.8372C17.2981 30.6956 16.9321 30.6228 16.5625 30.6228C16.1929 30.6228 15.8269 30.6956 15.4855 30.8372C15.1441 30.9787 14.8339 31.1862 14.5727 31.4477H14.568ZM16.6774 22.307C17.0697 21.9133 17.3366 21.4122 17.4443 20.8668C17.5521 20.3215 17.4958 19.7565 17.2826 19.2432C17.0695 18.7298 16.709 18.2912 16.2467 17.9826C15.7844 17.674 15.241 17.5092 14.6852 17.5092C14.1293 17.5092 13.5859 17.674 13.1236 17.9826C12.6613 18.2912 12.3008 18.7298 12.0877 19.2432C11.8745 19.7565 11.8183 20.3215 11.926 20.8668C12.0337 21.4122 12.3006 21.9133 12.693 22.307C12.9546 22.5689 13.2653 22.7766 13.6073 22.9182C13.9494 23.0597 14.316 23.1323 14.6861 23.1319C15.0563 23.1315 15.4227 23.058 15.7644 22.9156C16.1061 22.7733 16.4164 22.5648 16.6774 22.3023V22.307ZM27.9274 22.0727C27.5336 21.6803 27.0325 21.4134 26.4872 21.3057C25.9419 21.1979 25.3769 21.2542 24.8635 21.4674C24.3502 21.6805 23.9115 22.041 23.6029 22.5033C23.2943 22.9656 23.1296 23.509 23.1296 24.0648C23.1296 24.6207 23.2943 25.1641 23.6029 25.6264C23.9115 26.0887 24.3502 26.4492 24.8635 26.6623C25.3769 26.8755 25.9419 26.9317 26.4872 26.824C27.0325 26.7163 27.5336 26.4494 27.9274 26.057C28.1896 25.7957 28.3976 25.4853 28.5395 25.1434C28.6815 24.8015 28.7546 24.435 28.7546 24.0648C28.7546 23.6947 28.6815 23.3282 28.5395 22.9863C28.3976 22.6444 28.1896 22.3339 27.9274 22.0727ZM49.375 25C49.375 29.8209 47.9454 34.5336 45.2671 38.542C42.5887 42.5505 38.7819 45.6747 34.3279 47.5196C29.874 49.3644 24.973 49.8472 20.2447 48.9066C15.5164 47.9661 11.1732 45.6446 7.76428 42.2357C4.35538 38.8268 2.03388 34.4836 1.09337 29.7553C0.152855 25.027 0.635561 20.126 2.48045 15.6721C4.32533 11.2181 7.44954 7.41129 11.458 4.73293C15.4664 2.05457 20.1791 0.625 25 0.625C25.4973 0.625 25.9742 0.822544 26.3258 1.17417C26.6775 1.52581 26.875 2.00272 26.875 2.5C26.875 4.9864 27.8627 7.37097 29.6209 9.12913C31.379 10.8873 33.7636 11.875 36.25 11.875C36.7473 11.875 37.2242 12.0725 37.5758 12.4242C37.9275 12.7758 38.125 13.2527 38.125 13.75C38.125 16.2364 39.1127 18.621 40.8709 20.3791C42.629 22.1373 45.0136 23.125 47.5 23.125C47.9973 23.125 48.4742 23.3225 48.8258 23.6742C49.1775 24.0258 49.375 24.5027 49.375 25ZM45.5524 26.732C42.7442 26.3058 40.1494 24.9822 38.1558 22.9591C36.1623 20.936 34.877 18.3219 34.4922 15.5078C31.6781 15.123 29.0641 13.8378 27.0409 11.8442C25.0178 9.85062 23.6942 7.25582 23.268 4.44766C19.3502 4.77787 15.6085 6.22098 12.4836 8.60698C9.35869 10.993 6.98088 14.2224 5.63031 17.9148C4.27973 21.6072 4.01267 25.6087 4.86058 29.4478C5.70849 33.287 7.63605 36.8038 10.4162 39.5839C13.1962 42.364 16.713 44.2915 20.5522 45.1394C24.3913 45.9873 28.3928 45.7203 32.0852 44.3697C35.7776 43.0191 39.007 40.6413 41.393 37.5164C43.779 34.3915 45.2221 30.6498 45.5524 26.732Z" fill="#1E2D67"/>
</svg>
