<svg width="50" height="50" viewBox="0 0 50 50" fill="#1E2D67" xmlns="http://www.w3.org/2000/svg">
<path d="M45.625 15.625H34.375V4.375C34.375 3.38044 33.9799 2.42661 33.2766 1.72335C32.5734 1.02009 31.6196 0.625 30.625 0.625H19.375C18.3804 0.625 17.4266 1.02009 16.7234 1.72335C16.0201 2.42661 15.625 3.38044 15.625 4.375V15.625H4.375C3.38044 15.625 2.42661 16.0201 1.72335 16.7234C1.02009 17.4266 0.625 18.3804 0.625 19.375V30.625C0.625 31.6196 1.02009 32.5734 1.72335 33.2766C2.42661 33.9799 3.38044 34.375 4.375 34.375H15.625V45.625C15.625 46.6196 16.0201 47.5734 16.7234 48.2766C17.4266 48.9799 18.3804 49.375 19.375 49.375H30.625C31.6196 49.375 32.5734 48.9799 33.2766 48.2766C33.9799 47.5734 34.375 46.6196 34.375 45.625V34.375H45.625C46.6196 34.375 47.5734 33.9799 48.2766 33.2766C48.9799 32.5734 49.375 31.6196 49.375 30.625V19.375C49.375 18.3804 48.9799 17.4266 48.2766 16.7234C47.5734 16.0201 46.6196 15.625 45.625 15.625ZM45.625 30.625H32.5C32.0027 30.625 31.5258 30.8225 31.1742 31.1742C30.8225 31.5258 30.625 32.0027 30.625 32.5V45.625H19.375V32.5C19.375 32.0027 19.1775 31.5258 18.8258 31.1742C18.4742 30.8225 17.9973 30.625 17.5 30.625H4.375V19.375H17.5C17.9973 19.375 18.4742 19.1775 18.8258 18.8258C19.1775 18.4742 19.375 17.9973 19.375 17.5V4.375H30.625V17.5C30.625 17.9973 30.8225 18.4742 31.1742 18.8258C31.5258 19.1775 32.0027 19.375 32.5 19.375H45.625V30.625Z" fill="#1E2D67"/>
</svg>
