<svg width="29" height="25" viewBox="0 0 29 25" fill="none" xmlns="http://www.w3.org/2000/svg">
<path d="M28.625 9.5C28.625 10.1922 28.4197 10.8689 28.0351 11.4445C27.6506 12.0201 27.1039 12.4687 26.4644 12.7336C25.8249 12.9985 25.1211 13.0678 24.4422 12.9327C23.7633 12.7977 23.1396 12.4644 22.6501 11.9749C22.1606 11.4854 21.8273 10.8618 21.6923 10.1828C21.5572 9.50388 21.6265 8.80015 21.8914 8.16061C22.1563 7.52107 22.6049 6.97444 23.1805 6.58986C23.7561 6.20527 24.4328 6 25.125 6C26.0533 6 26.9435 6.36875 27.5999 7.02513C28.2563 7.68151 28.625 8.57174 28.625 9.5ZM7.625 9.5C7.625 8.80777 7.41973 8.13108 7.03515 7.55551C6.65056 6.97993 6.10394 6.53133 5.46439 6.26642C4.82485 6.00152 4.12112 5.9322 3.44219 6.06725C2.76325 6.2023 2.13961 6.53564 1.65013 7.02513C1.16064 7.51461 0.827301 8.13825 0.692253 8.81718C0.557205 9.49612 0.626516 10.1999 0.891423 10.8394C1.15633 11.4789 1.60493 12.0256 2.18051 12.4101C2.75608 12.7947 3.43277 13 4.125 13C5.05326 13 5.9435 12.6313 6.59987 11.9749C7.25625 11.3185 7.625 10.4283 7.625 9.5ZM10.125 7C10.8172 7 11.4939 6.79473 12.0695 6.41015C12.6451 6.02556 13.0937 5.47893 13.3586 4.83939C13.6235 4.19985 13.6928 3.49612 13.5578 2.81719C13.4227 2.13825 13.0894 1.51461 12.5999 1.02513C12.1104 0.535644 11.4868 0.202301 10.8078 0.0672531C10.1289 -0.0677952 9.42515 0.00151649 8.78561 0.266423C8.14607 0.53133 7.59944 0.979934 7.21486 1.55551C6.83027 2.13108 6.625 2.80777 6.625 3.5C6.625 4.42826 6.99375 5.3185 7.65013 5.97487C8.30651 6.63125 9.19674 7 10.125 7ZM19.125 7C19.8172 7 20.4939 6.79473 21.0695 6.41015C21.6451 6.02556 22.0937 5.47893 22.3586 4.83939C22.6235 4.19985 22.6928 3.49612 22.5578 2.81719C22.4227 2.13825 22.0894 1.51461 21.5999 1.02513C21.1104 0.535644 20.4868 0.202301 19.8078 0.0672531C19.1289 -0.0677952 18.4252 0.00151649 17.7856 0.266423C17.1461 0.53133 16.5994 0.979934 16.2149 1.55551C15.8303 2.13108 15.625 2.80777 15.625 3.5C15.625 4.42826 15.9937 5.3185 16.6501 5.97487C17.3065 6.63125 18.1967 7 19.125 7ZM22.015 14.6075C21.5071 14.3273 21.0594 13.9497 20.6975 13.4962C20.3357 13.0428 20.0668 12.5225 19.9063 11.965C19.5738 10.8216 18.8791 9.81692 17.9268 9.10205C16.9744 8.38718 15.8158 8.00071 14.625 8.00071C13.4342 8.00071 12.2756 8.38718 11.3232 9.10205C10.3709 9.81692 9.67625 10.8216 9.34375 11.965C9.02257 13.0867 8.2696 14.0352 7.25 14.6025C6.2719 15.1318 5.49816 15.972 5.05116 16.9903C4.60416 18.0086 4.50941 19.1469 4.78191 20.2251C5.0544 21.3033 5.67858 22.2599 6.55572 22.9436C7.43286 23.6273 8.51289 23.999 9.625 24C10.2915 24.0019 10.9514 23.8688 11.565 23.6088C13.5213 22.8019 15.7174 22.8019 17.6738 23.6088C18.8587 24.1241 20.1971 24.1607 21.4085 23.7109C22.6198 23.2611 23.61 22.3598 24.1714 21.1959C24.7328 20.0321 24.8218 18.6961 24.4198 17.4681C24.0178 16.24 23.1559 15.2153 22.015 14.6088V14.6075Z" fill="#133591"/>
</svg>
