<svg width="25" height="24" viewBox="0 0 25 24" fill="none" xmlns="http://www.w3.org/2000/svg">
<path d="M12.625 7.5C11.735 7.5 10.865 7.76392 10.1249 8.25839C9.38491 8.75285 8.80814 9.45566 8.46754 10.2779C8.12695 11.1002 8.03783 12.005 8.21147 12.8779C8.3851 13.7508 8.81368 14.5526 9.44302 15.182C10.0724 15.8113 10.8742 16.2399 11.7471 16.4135C12.62 16.5872 13.5248 16.4981 14.3471 16.1575C15.1693 15.8169 15.8721 15.2401 16.3666 14.5001C16.8611 13.76 17.125 12.89 17.125 12C17.1238 10.8069 16.6493 9.66303 15.8056 8.81939C14.962 7.97575 13.8181 7.50124 12.625 7.5ZM12.625 15C12.0317 15 11.4516 14.8241 10.9583 14.4944C10.4649 14.1648 10.0804 13.6962 9.85336 13.1481C9.6263 12.5999 9.56689 11.9967 9.68264 11.4147C9.7984 10.8328 10.0841 10.2982 10.5037 9.87868C10.9232 9.45912 11.4578 9.1734 12.0397 9.05764C12.6217 8.94189 13.2249 9.0013 13.7731 9.22836C14.3212 9.45542 14.7898 9.83994 15.1194 10.3333C15.4491 10.8266 15.625 11.4067 15.625 12C15.625 12.7956 15.3089 13.5587 14.7463 14.1213C14.1837 14.6839 13.4206 15 12.625 15ZM17.125 2.25H8.125C6.73307 2.25149 5.39858 2.80509 4.41433 3.78933C3.43009 4.77358 2.87649 6.10807 2.875 7.5V16.5C2.87649 17.8919 3.43009 19.2264 4.41433 20.2107C5.39858 21.1949 6.73307 21.7485 8.125 21.75H17.125C18.5169 21.7485 19.8514 21.1949 20.8357 20.2107C21.8199 19.2264 22.3735 17.8919 22.375 16.5V7.5C22.3735 6.10807 21.8199 4.77358 20.8357 3.78933C19.8514 2.80509 18.5169 2.25149 17.125 2.25ZM20.875 16.5C20.875 17.4946 20.4799 18.4484 19.7766 19.1516C19.0734 19.8549 18.1196 20.25 17.125 20.25H8.125C7.13044 20.25 6.17661 19.8549 5.47335 19.1516C4.77009 18.4484 4.375 17.4946 4.375 16.5V7.5C4.375 6.50544 4.77009 5.55161 5.47335 4.84835C6.17661 4.14509 7.13044 3.75 8.125 3.75H17.125C18.1196 3.75 19.0734 4.14509 19.7766 4.84835C20.4799 5.55161 20.875 6.50544 20.875 7.5V16.5ZM18.625 7.125C18.625 7.3475 18.559 7.56501 18.4354 7.75002C18.3118 7.93502 18.1361 8.07922 17.9305 8.16436C17.725 8.24951 17.4988 8.27179 17.2805 8.22838C17.0623 8.18498 16.8618 8.07783 16.7045 7.9205C16.5472 7.76316 16.44 7.56271 16.3966 7.34448C16.3532 7.12625 16.3755 6.90005 16.4606 6.69448C16.5458 6.48891 16.69 6.31321 16.875 6.1896C17.06 6.06598 17.2775 6 17.5 6C17.7984 6 18.0845 6.11853 18.2955 6.3295C18.5065 6.54048 18.625 6.82663 18.625 7.125Z" fill="#133591"/>
</svg>
