<svg width="20" height="19" viewBox="0 0 19 18" fill="none" xmlns="http://www.w3.org/2000/svg">
<path d="M9.75 4.84615C8.92845 4.84615 8.12534 5.08977 7.44225 5.5462C6.75915 6.00263 6.22674 6.65138 5.91235 7.41039C5.59795 8.16941 5.51569 9.00461 5.67597 9.81038C5.83625 10.6161 6.23186 11.3563 6.81279 11.9372C7.39371 12.5181 8.13386 12.9138 8.93962 13.074C9.74539 13.2343 10.5806 13.152 11.3396 12.8377C12.0986 12.5233 12.7474 11.9909 13.2038 11.3078C13.6602 10.6247 13.9038 9.82155 13.9038 9C13.9027 7.89868 13.4647 6.8428 12.6859 6.06405C11.9072 5.2853 10.8513 4.8473 9.75 4.84615ZM9.75 11.7692C9.2023 11.7692 8.6669 11.6068 8.2115 11.3025C7.7561 10.9982 7.40116 10.5657 7.19156 10.0597C6.98197 9.55373 6.92713 8.99693 7.03398 8.45975C7.14083 7.92257 7.40457 7.42914 7.79186 7.04186C8.17914 6.65457 8.67257 6.39083 9.20975 6.28398C9.74693 6.17713 10.3037 6.23197 10.8097 6.44156C11.3157 6.65116 11.7482 7.0061 12.0525 7.4615C12.3568 7.9169 12.5192 8.4523 12.5192 9C12.5192 9.73445 12.2275 10.4388 11.7081 10.9581C11.1888 11.4775 10.4844 11.7692 9.75 11.7692ZM13.9038 0H5.59615C4.3113 0.00137443 3.07946 0.512391 2.17092 1.42092C1.26239 2.32946 0.751374 3.5613 0.75 4.84615V13.1538C0.751374 14.4387 1.26239 15.6705 2.17092 16.5791C3.07946 17.4876 4.3113 17.9986 5.59615 18H13.9038C15.1887 17.9986 16.4205 17.4876 17.3291 16.5791C18.2376 15.6705 18.7486 14.4387 18.75 13.1538V4.84615C18.7486 3.5613 18.2376 2.32946 17.3291 1.42092C16.4205 0.512391 15.1887 0.00137443 13.9038 0ZM17.3654 13.1538C17.3654 14.0719 17.0007 14.9524 16.3515 15.6015C15.7024 16.2507 14.8219 16.6154 13.9038 16.6154H5.59615C4.6781 16.6154 3.79764 16.2507 3.14848 15.6015C2.49931 14.9524 2.13462 14.0719 2.13462 13.1538V4.84615C2.13462 3.9281 2.49931 3.04764 3.14848 2.39848C3.79764 1.74931 4.6781 1.38462 5.59615 1.38462H13.9038C14.8219 1.38462 15.7024 1.74931 16.3515 2.39848C17.0007 3.04764 17.3654 3.9281 17.3654 4.84615V13.1538ZM15.2885 4.5C15.2885 4.70539 15.2276 4.90616 15.1134 5.07694C14.9993 5.24771 14.8372 5.38082 14.6474 5.45941C14.4576 5.53801 14.2488 5.55858 14.0474 5.51851C13.846 5.47844 13.6609 5.37953 13.5157 5.2343C13.3705 5.08907 13.2716 4.90404 13.2315 4.70259C13.1914 4.50115 13.212 4.29235 13.2906 4.1026C13.3692 3.91284 13.5023 3.75066 13.6731 3.63655C13.8438 3.52244 14.0446 3.46154 14.25 3.46154C14.5254 3.46154 14.7896 3.57095 14.9843 3.7657C15.1791 3.96045 15.2885 4.22458 15.2885 4.5Z" fill="#133591"/>
</svg>
