<svg width="19" height="26" viewBox="0 0 19 26" fill="none" xmlns="http://www.w3.org/2000/svg">
<path d="M9.625 6C8.82151 6 8.03607 6.25659 7.368 6.73732C6.69992 7.21805 6.17922 7.90133 5.87174 8.70076C5.56426 9.50019 5.48381 10.3799 5.64056 11.2285C5.79731 12.0772 6.18423 12.8567 6.75238 13.4686C7.32053 14.0804 8.0444 14.4971 8.83245 14.6659C9.62049 14.8347 10.4373 14.7481 11.1797 14.417C11.922 14.0858 12.5565 13.5251 13.0028 12.8056C13.4492 12.0862 13.6875 11.2403 13.6875 10.375C13.6875 9.21468 13.2595 8.10188 12.4976 7.28141C11.7358 6.46094 10.7024 6 9.625 6ZM9.625 13C9.14291 13 8.67164 12.846 8.2708 12.5576C7.86995 12.2692 7.55753 11.8592 7.37304 11.3795C7.18855 10.8999 7.14028 10.3721 7.23434 9.86289C7.32839 9.35369 7.56054 8.88596 7.90143 8.51884C8.24232 8.15173 8.67664 7.90172 9.14947 7.80044C9.6223 7.69915 10.1124 7.75114 10.5578 7.94982C11.0032 8.1485 11.3839 8.48495 11.6517 8.91663C11.9195 9.34831 12.0625 9.85582 12.0625 10.375C12.0625 11.0712 11.8057 11.7389 11.3486 12.2312C10.8915 12.7234 10.2715 13 9.625 13ZM9.625 0.75C7.25545 0.752895 4.98373 1.76788 3.3082 3.57229C1.63268 5.37671 0.690188 7.82318 0.6875 10.375C0.6875 13.8094 2.16117 17.4494 4.95312 20.9023C6.20765 22.4626 7.6196 23.8677 9.16289 25.0914C9.2995 25.1945 9.46226 25.2498 9.62906 25.2498C9.79586 25.2498 9.95862 25.1945 10.0952 25.0914C11.6357 23.8672 13.0449 22.4622 14.2969 20.9023C17.0848 17.4494 18.5625 13.8094 18.5625 10.375C18.5598 7.82318 17.6173 5.37671 15.9418 3.57229C14.2663 1.76788 11.9945 0.752895 9.625 0.75ZM9.625 23.2812C7.94617 21.8594 2.3125 16.6367 2.3125 10.375C2.3125 8.28642 3.08292 6.28338 4.45428 4.80653C5.82564 3.32968 7.6856 2.5 9.625 2.5C11.5644 2.5 13.4244 3.32968 14.7957 4.80653C16.1671 6.28338 16.9375 8.28642 16.9375 10.375C16.9375 16.6345 11.3038 21.8594 9.625 23.2812Z" fill="#1E2D67"/>
</svg>
