<svg width="22" height="18" viewBox="0 0 22 18" fill="none" xmlns="http://www.w3.org/2000/svg">
<path d="M20.375 0.25H0.875C0.659512 0.25 0.452849 0.342187 0.300476 0.506282C0.148102 0.670376 0.0625 0.892936 0.0625 1.125V16C0.0625 16.4641 0.233705 16.9092 0.538451 17.2374C0.843198 17.5656 1.25652 17.75 1.6875 17.75H19.5625C19.9935 17.75 20.4068 17.5656 20.7115 17.2374C21.0163 16.9092 21.1875 16.4641 21.1875 16V1.125C21.1875 0.892936 21.1019 0.670376 20.9495 0.506282C20.7972 0.342187 20.5905 0.25 20.375 0.25ZM18.2859 2L10.625 9.56328L2.96414 2H18.2859ZM19.5625 16H1.6875V3.11453L10.0755 11.3953C10.2254 11.5435 10.4215 11.6257 10.625 11.6257C10.8285 11.6257 11.0246 11.5435 11.1745 11.3953L19.5625 3.11453V16Z" fill="#1E2D67"/>
</svg>
