<svg width="60" height="61" viewBox="0 0 60 61" fill="none" xmlns="http://www.w3.org/2000/svg">
<path d="M50.625 22.5435C50.6271 19.0677 49.7507 15.6478 48.0773 12.6014C46.4039 9.55494 43.9877 6.98082 41.0532 5.11811C38.1187 3.2554 34.761 2.16451 31.2921 1.94677C27.8231 1.72902 24.3554 2.39149 21.211 3.87263C18.0666 5.35377 15.3475 7.60555 13.3063 10.4188C11.2651 13.2321 9.96795 16.5156 9.53537 19.9643C9.10278 23.4131 9.54878 26.9152 10.832 30.1455C12.1151 33.3757 14.1938 36.2293 16.875 38.4412V56.2935C16.8748 56.6133 16.9563 56.9278 17.1119 57.2071C17.2675 57.4865 17.492 57.7214 17.7639 57.8896C18.0359 58.0578 18.3464 58.1536 18.6658 58.1679C18.9853 58.1823 19.3031 58.1147 19.5891 57.9716L30 52.7779L40.4133 57.9833C40.6744 58.1083 40.9606 58.1716 41.25 58.1685C41.7473 58.1685 42.2242 57.971 42.5758 57.6193C42.9275 57.2677 43.125 56.7908 43.125 56.2935V38.4412C45.4709 36.509 47.3601 34.0815 48.6568 31.3329C49.9535 28.5843 50.6256 25.5827 50.625 22.5435ZM13.125 22.5435C13.125 19.2059 14.1147 15.9433 15.969 13.1682C17.8232 10.3932 20.4587 8.23026 23.5422 6.95303C26.6257 5.6758 30.0187 5.34162 33.2922 5.99275C36.5656 6.64387 39.5724 8.25106 41.9324 10.6111C44.2924 12.9711 45.8996 15.9779 46.5508 19.2513C47.2019 22.5248 46.8677 25.9178 45.5905 29.0013C44.3132 32.0848 42.1503 34.7203 39.3752 36.5745C36.6002 38.4288 33.3376 39.4185 30 39.4185C25.526 39.4135 21.2367 37.634 18.0731 34.4704C14.9095 31.3068 13.13 27.0175 13.125 22.5435ZM39.375 53.2607L30.8367 48.9927C30.5762 48.8624 30.2889 48.7945 29.9977 48.7945C29.7064 48.7945 29.4191 48.8624 29.1586 48.9927L20.625 53.2607V40.9115C23.5274 42.3949 26.7404 43.1685 30 43.1685C33.2596 43.1685 36.4726 42.3949 39.375 40.9115V53.2607ZM30 35.6685C32.5959 35.6685 35.1335 34.8987 37.2919 33.4565C39.4503 32.0143 41.1325 29.9645 42.1259 27.5662C43.1193 25.1679 43.3792 22.5289 42.8728 19.9829C42.3664 17.4369 41.1163 15.0983 39.2808 13.2627C37.4452 11.4272 35.1066 10.1771 32.5606 9.67069C30.0146 9.16426 27.3756 9.42418 24.9773 10.4176C22.579 11.411 20.5292 13.0932 19.087 15.2516C17.6448 17.41 16.875 19.9476 16.875 22.5435C16.8787 26.0233 18.2627 29.3596 20.7233 31.8202C23.1839 34.2808 26.5202 35.6648 30 35.6685ZM30 13.1685C31.8542 13.1685 33.6668 13.7183 35.2085 14.7485C36.7502 15.7786 37.9518 17.2428 38.6614 18.9558C39.3709 20.6689 39.5566 22.5539 39.1949 24.3725C38.8331 26.191 37.9402 27.8615 36.6291 29.1726C35.318 30.4837 33.6475 31.3766 31.829 31.7384C30.0104 32.1001 28.1254 31.9144 26.4123 31.2049C24.6993 30.4953 23.2351 29.2937 22.205 27.752C21.1748 26.2103 20.625 24.3977 20.625 22.5435C20.625 20.0571 21.6127 17.6725 23.3709 15.9144C25.129 14.1562 27.5136 13.1685 30 13.1685Z" fill="#1E2D67"/>
</svg>
