<svg width="54" height="46" viewBox="0 0 54 46" fill="none" xmlns="http://www.w3.org/2000/svg">
<path d="M46.6875 11.75C45.3896 11.75 44.1208 12.1349 43.0416 12.856C41.9624 13.5771 41.1212 14.602 40.6245 15.8011C40.1278 17.0003 39.9979 18.3198 40.2511 19.5928C40.5043 20.8658 41.1293 22.0351 42.0471 22.9529C42.9649 23.8707 44.1342 24.4957 45.4072 24.7489C46.6802 25.0021 47.9997 24.8722 49.1989 24.3755C50.398 23.8788 51.4229 23.0376 52.144 21.9584C52.8651 20.8792 53.25 19.6104 53.25 18.3125C53.25 16.572 52.5586 14.9028 51.3279 13.6721C50.0972 12.4414 48.428 11.75 46.6875 11.75ZM46.6875 21.125C46.1312 21.125 45.5875 20.9601 45.125 20.651C44.6624 20.342 44.302 19.9027 44.0891 19.3888C43.8762 18.8749 43.8205 18.3094 43.929 17.7638C44.0376 17.2182 44.3054 16.7171 44.6988 16.3238C45.0921 15.9304 45.5932 15.6626 46.1388 15.554C46.6844 15.4455 47.2499 15.5012 47.7638 15.7141C48.2777 15.927 48.717 16.2874 49.026 16.75C49.3351 17.2125 49.5 17.7562 49.5 18.3125C49.5 19.0584 49.2037 19.7738 48.6762 20.3012C48.1488 20.8287 47.4334 21.125 46.6875 21.125ZM13.875 18.3125C13.875 17.0146 13.4901 15.7458 12.769 14.6666C12.0479 13.5874 11.023 12.7462 9.82386 12.2495C8.62472 11.7528 7.30522 11.6229 6.03222 11.8761C4.75922 12.1293 3.5899 12.7543 2.67211 13.6721C1.75433 14.5899 1.12932 15.7592 0.8761 17.0322C0.622884 18.3052 0.752843 19.6247 1.24954 20.8239C1.74624 22.023 2.58738 23.0479 3.66657 23.769C4.74577 24.4901 6.01456 24.875 7.3125 24.875C9.05299 24.875 10.7222 24.1836 11.9529 22.9529C13.1836 21.7222 13.875 20.053 13.875 18.3125ZM7.3125 21.125C6.75624 21.125 6.21247 20.9601 5.74996 20.651C5.28745 20.342 4.92696 19.9027 4.71409 19.3888C4.50122 18.8749 4.44552 18.3094 4.55404 17.7638C4.66257 17.2182 4.93043 16.7171 5.32376 16.3238C5.7171 15.9304 6.21824 15.6626 6.76381 15.554C7.30938 15.4455 7.87488 15.5012 8.3888 15.7141C8.90272 15.927 9.34197 16.2874 9.65101 16.75C9.96005 17.2125 10.125 17.7562 10.125 18.3125C10.125 19.0584 9.82869 19.7738 9.30124 20.3012C8.7738 20.8287 8.05842 21.125 7.3125 21.125ZM18.5625 13.625C19.8604 13.625 21.1292 13.2401 22.2084 12.519C23.2876 11.7979 24.1288 10.773 24.6255 9.57386C25.1222 8.37472 25.2521 7.05522 24.9989 5.78222C24.7457 4.50922 24.1207 3.3399 23.2029 2.42211C22.2851 1.50433 21.1158 0.879315 19.8428 0.6261C18.5698 0.372884 17.2503 0.502843 16.0511 0.999543C14.852 1.49624 13.8271 2.33738 13.106 3.41657C12.3849 4.49577 12 5.76456 12 7.0625C12 8.80299 12.6914 10.4722 13.9221 11.7029C15.1528 12.9336 16.822 13.625 18.5625 13.625ZM18.5625 4.25C19.1188 4.25 19.6625 4.41495 20.125 4.72399C20.5876 5.03304 20.948 5.47229 21.1609 5.98621C21.3738 6.50012 21.4295 7.06562 21.321 7.61119C21.2124 8.15677 20.9446 8.65791 20.5512 9.05124C20.1579 9.44458 19.6568 9.71244 19.1112 9.82096C18.5656 9.92948 18.0001 9.87379 17.4862 9.66091C16.9723 9.44804 16.533 9.08756 16.224 8.62504C15.915 8.16253 15.75 7.61876 15.75 7.0625C15.75 6.31658 16.0463 5.60121 16.5738 5.07376C17.1012 4.54632 17.8166 4.25 18.5625 4.25ZM35.4375 13.625C36.7354 13.625 38.0042 13.2401 39.0834 12.519C40.1626 11.7979 41.0038 10.773 41.5005 9.57386C41.9972 8.37472 42.1271 7.05522 41.8739 5.78222C41.6207 4.50922 40.9957 3.3399 40.0779 2.42211C39.1601 1.50433 37.9908 0.879315 36.7178 0.6261C35.4448 0.372884 34.1253 0.502843 32.9261 0.999543C31.727 1.49624 30.7021 2.33738 29.981 3.41657C29.2599 4.49577 28.875 5.76456 28.875 7.0625C28.875 8.80299 29.5664 10.4722 30.7971 11.7029C32.0278 12.9336 33.697 13.625 35.4375 13.625ZM35.4375 4.25C35.9938 4.25 36.5375 4.41495 37 4.72399C37.4626 5.03304 37.823 5.47229 38.0359 5.98621C38.2488 6.50012 38.3045 7.06562 38.196 7.61119C38.0874 8.15677 37.8196 8.65791 37.4262 9.05124C37.0329 9.44458 36.5318 9.71244 35.9862 9.82096C35.4406 9.92948 34.8751 9.87379 34.3612 9.66091C33.8473 9.44804 33.408 9.08756 33.099 8.62504C32.79 8.16253 32.625 7.61876 32.625 7.0625C32.625 6.31658 32.9213 5.60121 33.4488 5.07376C33.9762 4.54632 34.6916 4.25 35.4375 4.25ZM40.8563 27.8891C39.9039 27.3637 39.0644 26.6556 38.386 25.8054C37.7075 24.9552 37.2034 23.9796 36.9023 22.9344C36.2789 20.7904 34.9765 18.9067 33.1909 17.5663C31.4052 16.226 29.2328 15.5013 27 15.5013C24.7673 15.5013 22.5948 16.226 20.8092 17.5663C19.0235 18.9067 17.7211 20.7904 17.0977 22.9344C16.4954 25.0376 15.0836 26.816 13.1719 27.8797C11.3379 28.872 9.88718 30.4475 9.04905 32.3568C8.21093 34.2662 8.03328 36.4005 8.5442 38.4221C9.05512 40.4437 10.2255 42.2373 11.8701 43.5192C13.5147 44.8011 15.5398 45.4981 17.625 45.5C18.8746 45.5036 20.112 45.254 21.2625 44.7664C24.9306 43.2536 29.0483 43.2536 32.7164 44.7664C34.9382 45.7327 37.4478 45.8013 39.719 44.9579C41.9903 44.1145 43.8468 42.4246 44.8994 40.2424C45.952 38.0602 46.119 35.5552 45.3652 33.2526C44.6114 30.9501 42.9955 29.0287 40.8563 27.8914V27.8891ZM36.375 41.75C35.6137 41.7507 34.8602 41.5968 34.1602 41.2977C29.5679 39.4008 24.4111 39.4008 19.8188 41.2977C18.4842 41.8723 16.9791 41.9082 15.6187 41.3979C14.2583 40.8876 13.1481 39.8706 12.5207 38.5601C11.8933 37.2496 11.7973 35.7471 12.2529 34.3674C12.7086 32.9877 13.6804 31.8378 14.9648 31.1586C16.3459 30.3959 17.563 29.3685 18.5467 28.135C19.5304 26.9016 20.2613 25.4864 20.6977 23.9703C21.0939 22.6053 21.9226 21.4058 23.0591 20.5523C24.1957 19.6987 25.5786 19.2373 27 19.2373C28.4214 19.2373 29.8043 19.6987 30.9409 20.5523C32.0774 21.4058 32.9061 22.6053 33.3023 23.9703C33.7401 25.4892 34.4733 26.9068 35.4598 28.1419C36.4464 29.377 37.6669 30.4054 39.0516 31.168C40.1574 31.7611 41.0332 32.7069 41.5396 33.8551C42.046 35.0033 42.1539 36.2878 41.8462 37.5044C41.5385 38.7209 40.8328 39.7997 39.8414 40.569C38.85 41.3383 37.6299 41.754 36.375 41.75Z" fill="#1E2D67"/>
</svg>
