<svg width="18" height="19" viewBox="0 0 18 19" fill="none" xmlns="http://www.w3.org/2000/svg">
<path d="M17.0442 12.677L12.9037 10.8216L12.8923 10.8163C12.6773 10.7244 12.4429 10.6875 12.2101 10.709C11.9773 10.7305 11.7535 10.8096 11.559 10.9394C11.5361 10.9545 11.5141 10.9709 11.4931 10.9886L9.35382 12.8123C7.99854 12.154 6.59932 10.7653 5.94102 9.42765L7.76739 7.25588C7.78497 7.2339 7.80167 7.21193 7.81749 7.1882C7.94443 6.99423 8.02144 6.77188 8.04168 6.54095C8.06193 6.31002 8.02476 6.07767 7.9335 5.86457V5.85402L6.07286 1.70646C5.95222 1.42808 5.74479 1.19618 5.48152 1.04538C5.21825 0.894584 4.91328 0.832971 4.61212 0.869744C3.42117 1.02646 2.328 1.61134 1.53677 2.51514C0.745534 3.41894 0.310355 4.57986 0.312508 5.78107C0.312508 12.7596 5.99024 18.4373 12.9688 18.4373C14.17 18.4395 15.3309 18.0043 16.2347 17.2131C17.1385 16.4218 17.7234 15.3287 17.8801 14.1377C17.9169 13.8367 17.8554 13.5318 17.7048 13.2685C17.5542 13.0052 17.3225 12.7978 17.0442 12.677ZM12.9688 17.0311C9.98607 17.0278 7.12648 15.8415 5.0174 13.7324C2.90832 11.6233 1.72201 8.76376 1.71876 5.78107C1.71545 4.92281 2.02466 4.09269 2.58864 3.44574C3.15262 2.79878 3.93281 2.37924 4.7835 2.26545C4.78316 2.26895 4.78316 2.27249 4.7835 2.27599L6.62921 6.40685L4.81251 8.58127C4.79407 8.60248 4.77732 8.62511 4.76241 8.64894C4.63015 8.8519 4.55256 9.08558 4.53716 9.32734C4.52176 9.56909 4.56908 9.81073 4.67452 10.0288C5.47081 11.6574 7.11173 13.2861 8.75792 14.0815C8.97761 14.1859 9.22065 14.2316 9.46328 14.214C9.70591 14.1965 9.93983 14.1163 10.1422 13.9813C10.1648 13.9661 10.1865 13.9496 10.2072 13.932L12.3439 12.1092L16.4747 13.9593C16.4747 13.9593 16.4817 13.9593 16.4844 13.9593C16.372 14.8112 15.9531 15.5929 15.306 16.1583C14.6589 16.7237 13.828 17.034 12.9688 17.0311Z" fill="#133591"/>
</svg>
