<svg width="27" height="28" viewBox="0 0 27 28" fill="none" xmlns="http://www.w3.org/2000/svg">
<path d="M23.2095 17.3313L18.4249 15.0224L18.4117 15.0159C18.1633 14.9015 17.8923 14.8555 17.6233 14.8823C17.3543 14.909 17.0957 15.0076 16.8709 15.169C16.8445 15.1878 16.8191 15.2083 16.7948 15.2302L14.3227 17.4998C12.7566 16.6806 11.1398 14.9524 10.3791 13.2877L12.4895 10.5851C12.5099 10.5577 12.5292 10.5304 12.5474 10.5009C12.6941 10.2595 12.7831 9.98279 12.8065 9.69541C12.8299 9.40802 12.7869 9.11887 12.6815 8.85368V8.84056L10.5314 3.67915C10.392 3.33272 10.1523 3.04414 9.84809 2.85648C9.54387 2.66882 9.19145 2.59214 8.84345 2.6379C7.46724 2.83293 6.20402 3.56078 5.28971 4.68551C4.37539 5.81024 3.87252 7.25494 3.87501 8.74978C3.87501 17.4342 10.4359 24.4998 18.5 24.4998C19.8881 24.5025 21.2296 23.9609 22.274 22.9763C23.3184 21.9916 23.9942 20.6312 24.1753 19.1492C24.2179 18.7745 24.1468 18.3951 23.9728 18.0675C23.7987 17.7399 23.531 17.4816 23.2095 17.3313ZM18.5 22.7498C15.0534 22.7457 11.7489 21.2694 9.31178 18.6448C6.87462 16.0202 5.50377 12.4616 5.50001 8.74978C5.49619 7.68172 5.8535 6.64868 6.50521 5.84358C7.15692 5.03849 8.05847 4.51638 9.04149 4.37478C9.04109 4.37914 9.04109 4.38354 9.04149 4.3879L11.1743 9.52853L9.07501 12.2345C9.0537 12.2609 9.03435 12.289 9.01712 12.3187C8.86428 12.5713 8.77462 12.8621 8.75683 13.1629C8.73904 13.4638 8.79371 13.7645 8.91556 14.0359C9.83571 16.0626 11.7319 18.0893 13.6342 19.0792C13.888 19.2091 14.1689 19.266 14.4492 19.2441C14.7296 19.2223 14.9999 19.1225 15.2338 18.9545C15.2598 18.9355 15.2849 18.9151 15.3089 18.8932L17.7779 16.6248L22.5513 18.9271C22.5513 18.9271 22.5595 18.9271 22.5625 18.9271C22.4326 19.9873 21.9485 20.9601 21.2008 21.6637C20.4531 22.3673 19.4929 22.7534 18.5 22.7498Z" fill="#1E2D67"/>
</svg>
