<svg width="24" height="33" viewBox="0 0 24 33" fill="none" xmlns="http://www.w3.org/2000/svg">
<path d="M22.2499 0.8125H16.6249C16.1774 0.8125 15.7481 0.99029 15.4317 1.30676C15.1152 1.62322 14.9374 2.05245 14.9374 2.5C14.9374 2.94755 15.1152 3.37678 15.4317 3.69324C15.7481 4.00971 16.1774 4.1875 16.6249 4.1875H18.1718L15.9724 6.39109C14.8462 5.45524 13.5202 4.79052 12.0964 4.44819C10.6727 4.10585 9.18943 4.09505 7.76088 4.41661C6.33234 4.73818 4.99673 5.38351 3.85702 6.30286C2.71732 7.22222 1.80397 8.39103 1.1874 9.71917C0.570826 11.0473 0.267503 12.4993 0.300815 13.9632C0.334127 15.4271 0.703185 16.8638 1.37953 18.1626C2.05588 19.4613 3.02145 20.5873 4.2018 21.4539C5.38214 22.3205 6.74573 22.9044 8.18742 23.1606V25H5.37492C4.92736 25 4.49814 25.1778 4.18167 25.4943C3.86521 25.8107 3.68742 26.2399 3.68742 26.6875C3.68742 27.1351 3.86521 27.5643 4.18167 27.8807C4.49814 28.1972 4.92736 28.375 5.37492 28.375H8.18742V30.625C8.18742 31.0726 8.36521 31.5018 8.68167 31.8182C8.99814 32.1347 9.42736 32.3125 9.87492 32.3125C10.3225 32.3125 10.7517 32.1347 11.0682 31.8182C11.3846 31.5018 11.5624 31.0726 11.5624 30.625V28.375H14.3749C14.8225 28.375 15.2517 28.1972 15.5682 27.8807C15.8846 27.5643 16.0624 27.1351 16.0624 26.6875C16.0624 26.2399 15.8846 25.8107 15.5682 25.4943C15.2517 25.1778 14.8225 25 14.3749 25H11.5624V23.1606C13.0727 22.8912 14.4958 22.2621 15.7115 21.3264C16.9272 20.3906 17.8997 19.1759 18.5466 17.7849C19.1936 16.3939 19.496 14.8675 19.4283 13.3349C19.3606 11.8023 18.9248 10.3086 18.1577 8.98L20.5624 6.57812V8.125C20.5624 8.57255 20.7402 9.00178 21.0567 9.31824C21.3731 9.63471 21.8024 9.8125 22.2499 9.8125C22.6975 9.8125 23.1267 9.63471 23.4432 9.31824C23.7596 9.00178 23.9374 8.57255 23.9374 8.125V2.5C23.9374 2.05245 23.7596 1.62322 23.4432 1.30676C23.1267 0.99029 22.6975 0.8125 22.2499 0.8125ZM9.87492 19.9375C8.65115 19.9375 7.45485 19.5746 6.43733 18.8947C5.4198 18.2148 4.62673 17.2485 4.15841 16.1179C3.6901 14.9872 3.56756 13.7431 3.80631 12.5429C4.04505 11.3426 4.63436 10.2401 5.49969 9.37478C6.36503 8.50944 7.46754 7.92014 8.66779 7.68139C9.86805 7.44265 11.1122 7.56518 12.2428 8.0335C13.3734 8.50181 14.3397 9.29488 15.0196 10.3124C15.6995 11.3299 16.0624 12.5262 16.0624 13.75C16.0606 15.3905 15.4081 16.9632 14.2481 18.1232C13.0881 19.2831 11.5154 19.9356 9.87492 19.9375Z" fill="#133591"/>
</svg>
