<svg width="54" height="54" viewBox="0 0 54 54" fill="#1E2D67" xmlns="http://www.w3.org/2000/svg">
<path d="M52.7016 12.5495L41.4516 1.29948C41.2774 1.12527 41.0706 0.987085 40.843 0.892805C40.6154 0.798525 40.3714 0.75 40.1251 0.75C39.8787 0.75 39.6347 0.798525 39.4071 0.892805C39.1795 0.987085 38.9727 1.12527 38.7985 1.29948C38.6243 1.47369 38.4861 1.6805 38.3918 1.90811C38.2976 2.13572 38.249 2.37968 38.249 2.62604C38.249 2.87241 38.2976 3.11636 38.3918 3.34397C38.4861 3.57158 38.6243 3.7784 38.7985 3.95261L43.0993 8.25104L36.3751 14.9753L28.3266 6.92448C27.9748 6.57265 27.4976 6.375 27.0001 6.375C26.5025 6.375 26.0253 6.57265 25.6735 6.92448C25.3217 7.27631 25.124 7.75348 25.124 8.25104C25.124 8.7486 25.3217 9.22578 25.6735 9.5776L27.1618 11.0635L7.47428 30.751C7.12455 31.098 6.84727 31.511 6.65856 31.9661C6.46986 32.4211 6.37349 32.9092 6.37507 33.4018V44.9753L1.2985 50.0495C1.1243 50.2237 0.986108 50.4305 0.891828 50.6581C0.797549 50.8857 0.749023 51.1297 0.749023 51.376C0.749023 51.6224 0.797549 51.8664 0.891828 52.094C0.986108 52.3216 1.1243 52.5284 1.2985 52.7026C1.65033 53.0544 2.12751 53.2521 2.62507 53.2521C2.87143 53.2521 3.11538 53.2036 3.343 53.1093C3.57061 53.015 3.77742 52.8768 3.95163 52.7026L9.02585 47.626H20.5993C21.0919 47.6276 21.58 47.5312 22.035 47.3425C22.4901 47.1538 22.9031 46.8766 23.2501 46.5268L42.9376 26.8393L44.4235 28.3276C44.5977 28.5018 44.8045 28.64 45.0321 28.7343C45.2597 28.8286 45.5037 28.8771 45.7501 28.8771C45.9964 28.8771 46.2404 28.8286 46.468 28.7343C46.6956 28.64 46.9024 28.5018 47.0766 28.3276C47.2508 28.1534 47.389 27.9466 47.4833 27.719C47.5776 27.4914 47.6261 27.2474 47.6261 27.001C47.6261 26.7547 47.5776 26.5107 47.4833 26.2831C47.389 26.0555 47.2508 25.8487 47.0766 25.6745L39.0258 17.626L45.7501 10.9018L50.0485 15.2026C50.4003 15.5544 50.8775 15.7521 51.3751 15.7521C51.8726 15.7521 52.3498 15.5544 52.7016 15.2026C53.0535 14.8508 53.2511 14.3736 53.2511 13.876C53.2511 13.3785 53.0535 12.9013 52.7016 12.5495ZM20.5993 43.876H10.1251V33.4018L14.3438 29.1831L19.111 33.9526C19.2852 34.1268 19.492 34.265 19.7196 34.3593C19.9472 34.4536 20.1912 34.5021 20.4376 34.5021C20.6839 34.5021 20.9279 34.4536 21.1555 34.3593C21.3831 34.265 21.5899 34.1268 21.7641 33.9526C21.9383 33.7784 22.0765 33.5716 22.1708 33.344C22.2651 33.1164 22.3136 32.8724 22.3136 32.626C22.3136 32.3797 22.2651 32.1357 22.1708 31.9081C22.0765 31.6805 21.9383 31.4737 21.7641 31.2995L16.9946 26.5323L19.9688 23.5581L24.736 28.3276C25.0878 28.6794 25.565 28.8771 26.0626 28.8771C26.5601 28.8771 27.0373 28.6794 27.3891 28.3276C27.741 27.9758 27.9386 27.4986 27.9386 27.001C27.9386 26.5035 27.741 26.0263 27.3891 25.6745L22.6196 20.9073L29.8126 13.7143L40.2868 24.1885L20.5993 43.876Z" fill="#1E2D67"/>
</svg>
