<svg width="21" height="21" viewBox="0 0 21 21" fill="none" xmlns="http://www.w3.org/2000/svg">
<path d="M19.625 5.75C18.4319 5.74876 17.288 5.27425 16.4444 4.43061C15.6007 3.58697 15.1262 2.44309 15.125 1.25C15.125 1.05109 15.046 0.860322 14.9053 0.71967C14.7647 0.579018 14.5739 0.5 14.375 0.5H10.625C10.4261 0.5 10.2353 0.579018 10.0947 0.71967C9.95402 0.860322 9.875 1.05109 9.875 1.25V13.625C9.87485 13.9605 9.78467 14.2898 9.61387 14.5786C9.44307 14.8674 9.19791 15.1051 8.90396 15.2668C8.61001 15.4286 8.27804 15.5085 7.94268 15.4983C7.60732 15.488 7.28086 15.388 6.99734 15.2085C6.71383 15.0291 6.48365 14.7769 6.33082 14.4782C6.17799 14.1795 6.1081 13.8453 6.12845 13.5104C6.1488 13.1755 6.25864 12.8522 6.44651 12.5742C6.63439 12.2962 6.89341 12.0738 7.19656 11.93C7.3248 11.8691 7.43313 11.7731 7.50897 11.6532C7.58481 11.5332 7.62505 11.3941 7.625 11.2522V7.25C7.62505 7.14037 7.60106 7.03206 7.55472 6.9327C7.50839 6.83334 7.44084 6.74535 7.35682 6.67492C7.2728 6.60449 7.17437 6.55333 7.06845 6.52505C6.96252 6.49678 6.85169 6.49206 6.74375 6.51125C3.39781 7.1075 0.875 10.1656 0.875 13.625C0.875 15.5147 1.62567 17.3269 2.96186 18.6631C4.29806 19.9993 6.11033 20.75 8 20.75C9.88967 20.75 11.7019 19.9993 13.0381 18.6631C14.3743 17.3269 15.125 15.5147 15.125 13.625V9.90219C16.514 10.6269 18.0583 11.0036 19.625 11C19.8239 11 20.0147 10.921 20.1553 10.7803C20.296 10.6397 20.375 10.4489 20.375 10.25V6.5C20.375 6.30109 20.296 6.11032 20.1553 5.96967C20.0147 5.82902 19.8239 5.75 19.625 5.75ZM18.875 9.46625C17.4093 9.33637 16.0059 8.81329 14.8128 7.95219C14.7007 7.87156 14.5684 7.82347 14.4307 7.81321C14.293 7.80295 14.1551 7.83092 14.0322 7.89404C13.9094 7.95716 13.8064 8.05298 13.7345 8.17093C13.6626 8.28888 13.6247 8.42438 13.625 8.5625V13.625C13.625 15.1168 13.0324 16.5476 11.9775 17.6025C10.9226 18.6574 9.49184 19.25 8 19.25C6.50816 19.25 5.07742 18.6574 4.02252 17.6025C2.96763 16.5476 2.375 15.1168 2.375 13.625C2.375 11.1969 3.935 9.01906 6.125 8.225V10.8191C5.64017 11.143 5.24754 11.587 4.98537 12.1079C4.72321 12.6287 4.60045 13.2086 4.62907 13.7909C4.65768 14.3733 4.8367 14.9384 5.14866 15.431C5.46062 15.9236 5.89489 16.327 6.40914 16.6018C6.92339 16.8767 7.50008 17.0136 8.083 16.9993C8.66591 16.9849 9.23517 16.8198 9.73528 16.52C10.2354 16.2202 10.6493 15.796 10.9367 15.2886C11.224 14.7812 11.3751 14.2081 11.375 13.625V2H13.6719C13.8405 3.32101 14.443 4.54866 15.3847 5.49034C16.3263 6.43203 17.554 7.03446 18.875 7.20312V9.46625Z" fill="#133591"/>
</svg>
