<svg width="54" height="54" viewBox="0 0 54 54" fill="none" xmlns="http://www.w3.org/2000/svg">
<path d="M43.4297 11.6657C42.0734 8.42722 39.7902 5.6618 36.867 3.7169C33.9439 1.77201 30.5111 0.734375 27.0001 0.734375C23.489 0.734375 20.0562 1.77201 17.1331 3.7169C14.2099 5.6618 11.9267 8.42722 10.5704 11.6657C7.64117 13.0045 5.15832 15.1568 3.41733 17.8664C1.67634 20.5759 0.750517 23.7286 0.750055 26.9493C0.726617 35.9024 8.25006 43.6368 17.1891 43.8712C19.9386 43.9376 22.6628 43.3317 25.1251 42.1063V51.3712C25.1251 51.8685 25.3226 52.3454 25.6742 52.697C26.0259 53.0486 26.5028 53.2462 27.0001 53.2462C27.4973 53.2462 27.9743 53.0486 28.3259 52.697C28.6775 52.3454 28.8751 51.8685 28.8751 51.3712V42.1063C31.206 43.2637 33.7726 43.8677 36.3751 43.8712H36.8016C45.7501 43.6368 53.2758 35.9024 53.2501 26.9493C53.2496 23.7286 52.3238 20.5759 50.5828 17.8664C48.8418 15.1568 46.3589 13.0045 43.4297 11.6657ZM36.7149 40.1212C33.9188 40.194 31.1724 39.3729 28.8751 37.7774V28.168L39.0891 23.0634C39.3095 22.9532 39.506 22.8007 39.6674 22.6145C39.8289 22.4284 39.9521 22.2123 40.03 21.9785C40.1079 21.7448 40.139 21.498 40.1215 21.2522C40.1041 21.0065 40.0384 20.7665 39.9282 20.5462C39.818 20.3258 39.6655 20.1293 39.4793 19.9678C39.2932 19.8064 39.0771 19.6832 38.8434 19.6053C38.6096 19.5274 38.3628 19.4963 38.1171 19.5138C37.8713 19.5312 37.6314 19.5969 37.411 19.7071L28.8751 23.9634V17.6212C28.8751 17.1239 28.6775 16.647 28.3259 16.2953C27.9743 15.9437 27.4973 15.7462 27.0001 15.7462C26.5028 15.7462 26.0259 15.9437 25.6742 16.2953C25.3226 16.647 25.1251 17.1239 25.1251 17.6212V29.5884L16.5891 25.318C16.1441 25.0955 15.6288 25.0589 15.1567 25.2162C14.6847 25.3736 14.2945 25.712 14.0719 26.1571C13.8494 26.6022 13.8128 27.1174 13.9701 27.5895C14.1275 28.0615 14.4659 28.4518 14.911 28.6743L25.1251 33.779V37.7634C22.8283 39.3601 20.0815 40.1812 17.2852 40.1071C10.336 39.9407 4.4813 33.9149 4.50005 26.9587C4.49828 24.3425 5.28158 21.786 6.74862 19.62C8.21567 17.4539 10.299 15.7778 12.729 14.8087C12.9727 14.7108 13.1932 14.5628 13.3761 14.3742C13.559 14.1857 13.7003 13.9608 13.7907 13.7141C14.7797 11.0057 16.5774 8.66671 18.9402 7.0141C21.303 5.3615 24.1167 4.47516 27.0001 4.47516C29.8834 4.47516 32.6971 5.3615 35.0599 7.0141C37.4227 8.66671 39.2204 11.0057 40.2094 13.7141C40.2999 13.9608 40.4411 14.1857 40.624 14.3742C40.8069 14.5628 41.0274 14.7108 41.2711 14.8087C43.7008 15.7784 45.7837 17.4545 47.2507 19.6205C48.7176 21.7865 49.5012 24.3427 49.5001 26.9587C49.5188 33.9149 43.6641 39.9407 36.7149 40.1212Z" fill="#1E2D67"/>
</svg>
