<svg width="32" height="28" viewBox="0 0 32 28" fill="none" xmlns="http://www.w3.org/2000/svg">
<path d="M31.75 11.1875C31.75 11.9663 31.5191 12.7275 31.0864 13.3751C30.6538 14.0226 30.0388 14.5273 29.3193 14.8253C28.5998 15.1233 27.8081 15.2013 27.0443 15.0493C26.2805 14.8974 25.5789 14.5224 25.0283 13.9717C24.4776 13.4211 24.1026 12.7195 23.9507 11.9557C23.7987 11.1919 23.8767 10.4002 24.1747 9.68069C24.4727 8.9612 24.9774 8.34625 25.6249 7.91359C26.2725 7.48093 27.0337 7.25 27.8125 7.25C28.8568 7.25 29.8583 7.66484 30.5967 8.40327C31.3352 9.14169 31.75 10.1432 31.75 11.1875ZM8.125 11.1875C8.125 10.4087 7.89407 9.64746 7.46141 8.99994C7.02876 8.35243 6.4138 7.84775 5.69432 7.54973C4.97483 7.25171 4.18313 7.17373 3.41933 7.32566C2.65553 7.47759 1.95394 7.8526 1.40327 8.40327C0.8526 8.95394 0.477589 9.65553 0.32566 10.4193C0.17373 11.1831 0.251706 11.9748 0.549726 12.6943C0.847746 13.4138 1.35243 14.0288 1.99994 14.4614C2.64746 14.8941 3.40874 15.125 4.1875 15.125C5.23179 15.125 6.23331 14.7102 6.97173 13.9717C7.71016 13.2333 8.125 12.2318 8.125 11.1875ZM10.9375 8.375C11.7163 8.375 12.4775 8.14407 13.1251 7.71141C13.7726 7.27876 14.2773 6.6638 14.5753 5.94432C14.8733 5.22483 14.9513 4.43313 14.7993 3.66933C14.6474 2.90553 14.2724 2.20394 13.7217 1.65327C13.1711 1.1026 12.4695 0.727589 11.7057 0.57566C10.9419 0.42373 10.1502 0.501706 9.43069 0.799726C8.7112 1.09775 8.09625 1.60243 7.66359 2.24994C7.23093 2.89746 7 3.65874 7 4.4375C7 5.48179 7.41484 6.48331 8.15327 7.22173C8.89169 7.96016 9.89321 8.375 10.9375 8.375ZM21.0625 8.375C21.8413 8.375 22.6025 8.14407 23.2501 7.71141C23.8976 7.27876 24.4023 6.6638 24.7003 5.94432C24.9983 5.22483 25.0763 4.43313 24.9243 3.66933C24.7724 2.90553 24.3974 2.20394 23.8467 1.65327C23.2961 1.1026 22.5945 0.727589 21.8307 0.57566C21.0669 0.42373 20.2752 0.501706 19.5557 0.799726C18.8362 1.09775 18.2212 1.60243 17.7886 2.24994C17.3559 2.89746 17.125 3.65874 17.125 4.4375C17.125 5.48179 17.5398 6.48331 18.2783 7.22173C19.0167 7.96016 20.0182 8.375 21.0625 8.375ZM24.3138 16.9334C23.7423 16.6182 23.2386 16.1934 22.8316 15.6832C22.4245 15.1731 22.122 14.5878 21.9414 13.9606C21.5674 12.6743 20.7859 11.544 19.7145 10.7398C18.6431 9.93558 17.3397 9.5008 16 9.5008C14.6604 9.5008 13.3569 9.93558 12.2855 10.7398C11.2141 11.544 10.4327 12.6743 10.0586 13.9606C9.69727 15.2225 8.85017 16.2896 7.70313 16.9278C6.60276 17.5232 5.73231 18.4685 5.22943 19.6141C4.72656 20.7597 4.61997 22.0403 4.92652 23.2533C5.23307 24.4662 5.93527 25.5424 6.92206 26.3115C7.90884 27.0807 9.12388 27.4989 10.375 27.5C11.1248 27.5022 11.8672 27.3524 12.5575 27.0598C14.7584 26.1522 17.229 26.1522 19.4298 27.0598C20.7629 27.6396 22.2687 27.6808 23.6314 27.1748C24.9942 26.6687 26.1081 25.6547 26.7397 24.3454C27.3712 23.0361 27.4714 21.5331 27.0191 20.1516C26.5669 18.77 25.5973 17.6172 24.3138 16.9348V16.9334Z" fill="#1E2D67"/>
</svg>
