<svg width="24" height="22" viewBox="0 0 24 22" fill="none" xmlns="http://www.w3.org/2000/svg">
<path d="M24 8.84598C24 9.43933 23.8241 10.0193 23.4944 10.5127C23.1648 11.006 22.6962 11.3906 22.1481 11.6176C21.5999 11.8447 20.9967 11.9041 20.4147 11.7883C19.8328 11.6726 19.2982 11.3869 18.8787 10.9673C18.4591 10.5477 18.1734 10.0132 18.0576 9.43125C17.9419 8.84931 18.0013 8.24611 18.2284 7.69793C18.4554 7.14975 18.8399 6.68122 19.3333 6.35157C19.8266 6.02193 20.4067 5.84598 21 5.84598C21.7956 5.84598 22.5587 6.16205 23.1213 6.72466C23.6839 7.28727 24 8.05033 24 8.84598ZM6 8.84598C6 8.25264 5.82405 7.67262 5.49441 7.17927C5.16477 6.68592 4.69623 6.30141 4.14805 6.07434C3.59987 5.84728 2.99667 5.78787 2.41473 5.90363C1.83279 6.01938 1.29824 6.3051 0.878681 6.72466C0.459123 7.14422 0.173401 7.67877 0.0576455 8.26071C-0.0581102 8.84265 0.00129985 9.44585 0.228363 9.99403C0.455426 10.5422 0.839943 11.0107 1.33329 11.3404C1.82664 11.67 2.40666 11.846 3 11.846C3.79565 11.846 4.55871 11.5299 5.12132 10.9673C5.68393 10.4047 6 9.64163 6 8.84598ZM8.14286 6.70313C8.7362 6.70313 9.31622 6.52718 9.80957 6.19753C10.3029 5.86789 10.6874 5.39935 10.9145 4.85118C11.1416 4.303 11.201 3.6998 11.0852 3.11786C10.9695 2.53591 10.6837 2.00136 10.2642 1.58181C9.84462 1.16225 9.31007 0.876526 8.72813 0.76077C8.14619 0.645015 7.54299 0.704425 6.99481 0.931488C6.44663 1.15855 5.97809 1.54307 5.64845 2.03642C5.3188 2.52976 5.14286 3.10978 5.14286 3.70313C5.14286 4.49878 5.45893 5.26184 6.02154 5.82445C6.58415 6.38705 7.34721 6.70313 8.14286 6.70313ZM15.8571 6.70313C16.4505 6.70313 17.0305 6.52718 17.5239 6.19753C18.0172 5.86789 18.4017 5.39935 18.6288 4.85118C18.8558 4.303 18.9153 3.6998 18.7995 3.11786C18.6837 2.53591 18.398 2.00136 17.9785 1.58181C17.5589 1.16225 17.0244 0.876526 16.4424 0.76077C15.8605 0.645015 15.2573 0.704425 14.7091 0.931488C14.1609 1.15855 13.6924 1.54307 13.3627 2.03642C13.0331 2.52976 12.8571 3.10978 12.8571 3.70313C12.8571 4.49878 13.1732 5.26184 13.7358 5.82445C14.2984 6.38705 15.0615 6.70313 15.8571 6.70313ZM18.3343 13.2238C17.8989 12.9837 17.5152 12.66 17.205 12.2713C16.8949 11.8827 16.6644 11.4367 16.5268 10.9588C16.2418 9.97875 15.6464 9.11762 14.8301 8.50488C14.0138 7.89214 13.0207 7.56087 12 7.56087C10.9793 7.56087 9.9862 7.89214 9.1699 8.50488C8.3536 9.11762 7.75821 9.97875 7.47322 10.9588C7.19792 11.9203 6.55251 12.7333 5.67857 13.2196C4.8402 13.6732 4.177 14.3934 3.79385 15.2662C3.41071 16.1391 3.3295 17.1148 3.56306 18.0389C3.79663 18.9631 4.33164 19.7831 5.08347 20.3691C5.83531 20.9551 6.76105 21.2737 7.71429 21.2746C8.28553 21.2762 8.85119 21.1621 9.37714 20.9392C11.054 20.2476 12.9364 20.2476 14.6132 20.9392C15.6289 21.3809 16.7761 21.4123 17.8144 21.0267C18.8527 20.6412 19.7014 19.8686 20.1826 18.8711C20.6638 17.8735 20.7401 16.7284 20.3955 15.6758C20.0509 14.6232 19.3122 13.7448 18.3343 13.2249V13.2238Z" fill="#A7C4F8"/>
</svg>
