<svg width="42" height="54" viewBox="0 0 42 54" fill="none" xmlns="http://www.w3.org/2000/svg">
<path d="M31.7812 10.1909C28.8862 6.84737 25.6278 3.83663 22.0664 1.21432C21.7511 0.993469 21.3755 0.875 20.9906 0.875C20.6057 0.875 20.2301 0.993469 19.9148 1.21432C16.36 3.83772 13.1079 6.84842 10.2188 10.1909C3.77578 17.5901 0.375 25.3901 0.375 32.7495C0.375 38.2196 2.54799 43.4656 6.41592 47.3336C10.2839 51.2015 15.5299 53.3745 21 53.3745C26.4701 53.3745 31.7161 51.2015 35.5841 47.3336C39.452 43.4656 41.625 38.2196 41.625 32.7495C41.625 25.3901 38.2242 17.5901 31.7812 10.1909ZM21 49.6245C16.526 49.6195 12.2367 47.84 9.07306 44.6764C5.90945 41.5128 4.12996 37.2235 4.125 32.7495C4.125 19.3362 17.1258 8.1401 21 5.09322C24.8742 8.1401 37.875 19.3315 37.875 32.7495C37.87 37.2235 36.0905 41.5128 32.9269 44.6764C29.7633 47.84 25.474 49.6195 21 49.6245ZM34.0992 34.9385C33.613 37.6543 32.3065 40.1558 30.3554 42.1064C28.4044 44.0571 25.9025 45.3631 23.1867 45.8487C23.0836 45.8652 22.9794 45.8738 22.875 45.8745C22.4047 45.8744 21.9516 45.6975 21.6055 45.3789C21.2595 45.0604 21.0459 44.6234 21.0069 44.1547C20.968 43.686 21.1066 43.2198 21.3953 42.8485C21.6841 42.4772 22.1018 42.228 22.5656 42.1503C26.4492 41.4963 29.7445 38.201 30.4031 34.3104C30.4864 33.82 30.7611 33.3827 31.1668 33.0948C31.5725 32.8069 32.076 32.692 32.5664 32.7753C33.0569 32.8586 33.4941 33.1333 33.782 33.539C34.0699 33.9446 34.1849 34.4481 34.1016 34.9385H34.0992Z" fill="#1E2D67"/>
</svg>
